<svg width="199" height="72" viewBox="0 0 199 72" fill="none" xmlns="http://www.w3.org/2000/svg">
<rect x="0.771973" y="0.5" width="197.068" height="71" rx="9.5" stroke="#A1AEBF"/>
<path d="M69.165 28.8265H72.8179V43.4999H69.165V28.8265ZM74.2668 37.9596C74.2668 34.3306 76.5072 32.1652 79.9652 32.1652C83.4232 32.1652 85.6636 34.3306 85.6636 37.9596C85.6636 41.5886 83.4719 43.766 79.9652 43.766C76.4585 43.766 74.2668 41.6491 74.2668 37.9596ZM81.9986 37.9596C81.9986 35.9636 81.2072 34.7902 79.9652 34.7902C78.7232 34.7902 77.944 35.9999 77.944 37.9596C77.944 39.9193 78.7111 41.1048 79.9652 41.1048C81.2193 41.1048 81.9986 39.9918 81.9986 37.9717V37.9596ZM87.0395 44.2136H90.5462C90.7131 44.582 90.9952 44.8869 91.3507 45.0831C91.7061 45.2792 92.1158 45.3562 92.5187 45.3023C93.9068 45.3023 94.6373 44.5523 94.6373 43.4636V41.4314H94.5643C94.2733 42.0542 93.801 42.5761 93.2085 42.9298C92.616 43.2834 91.9304 43.4525 91.2402 43.4152C88.5737 43.4152 86.8081 41.3951 86.8081 37.9233C86.8081 34.4515 88.4884 32.262 91.2889 32.262C92.0007 32.2343 92.704 32.4234 93.3047 32.8038C93.9053 33.1844 94.3746 33.7382 94.6495 34.391V32.3709H98.3023V43.3789C98.3023 46.0281 95.9524 47.6733 92.4822 47.6733C89.2555 47.6733 87.2465 46.2338 87.0395 44.2257V44.2136ZM94.6495 37.9475C94.6495 36.1814 93.8337 35.0685 92.5431 35.0685C91.2524 35.0685 90.461 36.1693 90.461 37.9475C90.461 39.7257 91.2402 40.7298 92.5431 40.7298C93.8459 40.7298 94.6495 39.7499 94.6495 37.9596V37.9475ZM99.6782 37.9475C99.6782 34.3185 101.919 32.1531 105.377 32.1531C108.835 32.1531 111.087 34.3185 111.087 37.9475C111.087 41.5765 108.896 43.7539 105.377 43.7539C101.858 43.7539 99.6782 41.6491 99.6782 37.9596V37.9475ZM107.41 37.9475C107.41 35.9515 106.619 34.7781 105.377 34.7781C104.135 34.7781 103.416 35.9999 103.416 37.9717C103.416 39.9435 104.183 41.1168 105.425 41.1168C106.667 41.1168 107.41 39.9918 107.41 37.9717V37.9475ZM112.475 29.7338C112.466 29.3674 112.566 29.0064 112.763 28.6966C112.96 28.3868 113.246 28.1422 113.583 27.9937C113.92 27.8452 114.294 27.7995 114.658 27.8625C115.021 27.9255 115.357 28.0942 115.624 28.3474C115.891 28.6005 116.076 28.9267 116.156 29.2845C116.236 29.6423 116.207 30.0156 116.074 30.3573C115.94 30.6987 115.707 30.9932 115.404 31.2031C115.102 31.4129 114.744 31.5289 114.375 31.5362C114.13 31.5529 113.885 31.5191 113.654 31.4371C113.423 31.3551 113.212 31.2266 113.034 31.0596C112.855 30.8927 112.714 30.6908 112.618 30.4667C112.521 30.2428 112.473 30.0015 112.475 29.758V29.7338ZM112.475 32.3951H116.128V43.4999H112.475V32.3951ZM129.388 37.9475C129.388 41.5765 127.768 43.6451 124.992 43.6451C124.28 43.6904 123.572 43.5176 122.962 43.1498C122.352 42.782 121.871 42.237 121.583 41.5886H121.51V47.0564H117.857V32.3709H121.51V34.3548H121.583C121.857 33.6956 122.33 33.1365 122.935 32.7534C123.541 32.3703 124.251 32.1818 124.968 32.2136C127.768 32.262 129.437 34.3427 129.437 37.9717L129.388 37.9475ZM125.735 37.9475C125.735 36.1814 124.919 35.0564 123.641 35.0564C122.362 35.0564 121.546 36.1935 121.534 37.9475C121.522 39.7015 122.362 40.8265 123.641 40.8265C124.919 40.8265 125.735 39.7257 125.735 37.9717V37.9475ZM135.658 32.141C138.69 32.141 140.529 33.5685 140.614 35.8548H137.29C137.29 35.0685 136.633 34.5725 135.622 34.5725C134.611 34.5725 134.161 34.9596 134.161 35.5281C134.161 36.0967 134.563 36.2781 135.378 36.4475L137.716 36.9193C139.944 37.391 140.894 38.2862 140.894 39.9677C140.894 42.266 138.788 43.7418 135.683 43.7418C132.578 43.7418 130.545 42.266 130.386 40.0039H133.905C134.015 40.8265 134.672 41.3104 135.744 41.3104C136.815 41.3104 137.302 40.9596 137.302 40.3789C137.302 39.7983 136.961 39.6773 136.085 39.4959L133.978 39.0483C131.799 38.6007 130.654 37.4515 130.654 35.758C130.678 33.5806 132.639 32.1652 135.658 32.1652V32.141ZM153.082 43.4757H149.564V41.4072H149.49C149.297 42.1016 148.871 42.7095 148.281 43.1299C147.692 43.5501 146.976 43.7576 146.252 43.7177C145.697 43.749 145.141 43.6616 144.623 43.4614C144.105 43.2612 143.636 42.953 143.249 42.5573C142.861 42.1618 142.563 41.6879 142.375 41.1681C142.188 40.6483 142.114 40.0946 142.16 39.5443V32.3709H145.813V38.7096C145.813 40.0281 146.495 40.7298 147.628 40.7298C147.893 40.7302 148.156 40.6745 148.398 40.566C148.639 40.4575 148.856 40.2987 149.031 40.1006C149.206 39.9023 149.337 39.6692 149.414 39.4169C149.49 39.1644 149.514 38.8985 149.478 38.637V32.3709H153.131L153.082 43.4757ZM154.848 32.3709H158.379V34.512H158.452C158.646 33.8267 159.063 33.2246 159.638 32.8C160.213 32.3754 160.914 32.1521 161.63 32.1652C162.359 32.1073 163.083 32.3239 163.659 32.7723C164.233 33.2206 164.618 33.8675 164.735 34.5846H164.808C165.028 33.8599 165.486 33.2289 166.108 32.7909C166.729 32.3529 167.481 32.1327 168.242 32.1652C168.738 32.1487 169.233 32.2361 169.693 32.4219C170.154 32.6076 170.57 32.8877 170.914 33.2435C171.259 33.5996 171.524 34.0235 171.694 34.4879C171.862 34.9523 171.931 35.447 171.894 35.9394V43.4999H168.242V36.9072C168.242 35.6975 167.694 35.141 166.671 35.141C166.443 35.1391 166.217 35.1858 166.009 35.278C165.8 35.3702 165.614 35.5056 165.463 35.6754C165.312 35.8451 165.199 36.0449 165.132 36.2616C165.065 36.4783 165.047 36.7067 165.076 36.9314V43.4999H161.606V36.8588C161.606 35.7459 161.058 35.141 160.059 35.141C159.829 35.1412 159.6 35.1898 159.391 35.2838C159.18 35.3779 158.991 35.5152 158.839 35.6866C158.686 35.858 158.571 36.0598 158.502 36.2786C158.434 36.4973 158.412 36.728 158.44 36.9556V43.4999H154.787L154.848 32.3709Z" fill="#0D0E14"/>
<path d="M58.9493 29.4921C58.3297 28.0844 57.5096 26.7726 56.5141 25.5969C55.0427 23.807 53.2063 22.347 51.1259 21.3129C49.0455 20.2789 46.7682 19.6944 44.444 19.5977C42.1198 19.501 39.8014 19.8945 37.6412 20.7521C35.4812 21.6098 33.5284 22.9122 31.9114 24.5737C30.2945 26.2351 29.05 28.218 28.26 30.3917C27.4699 32.5654 27.1522 34.8807 27.3277 37.1851C27.5032 39.4897 28.168 41.7311 29.2782 43.7619C30.3885 45.7928 31.9191 47.5671 33.7693 48.9679C34.9564 49.8847 36.2682 50.63 37.6656 51.1816C39.6247 51.9792 41.7216 52.39 43.8389 52.3912C48.2093 52.3817 52.3977 50.6509 55.4859 47.5783C58.574 44.5057 60.3099 40.3421 60.3131 36.0001C60.3162 33.7604 59.852 31.5444 58.9493 29.4921ZM43.8267 22.9235C45.7281 22.9233 47.6065 23.3362 49.3303 24.1332C48.9099 24.3136 48.468 24.4397 48.0152 24.5082C46.5256 24.7224 45.1457 25.4095 44.0814 26.4669C43.0171 27.5242 42.3255 28.8952 42.1099 30.3751C42.0153 31.2051 41.6352 31.9772 41.0341 32.5613C40.433 33.1453 39.6475 33.5053 38.8102 33.5808C37.3205 33.795 35.9406 34.4821 34.8763 35.5395C33.812 36.5969 33.1204 37.9678 32.9048 39.4477C32.8318 40.2369 32.4928 40.9786 31.9429 41.5525C30.9939 39.5606 30.5676 37.3623 30.7037 35.1627C30.8397 32.963 31.5336 30.8332 32.7209 28.9715C33.9081 27.11 35.5501 25.577 37.494 24.5153C39.4379 23.4536 41.6206 22.8977 43.8389 22.8993L43.8267 22.9235ZM33.7571 44.4679C33.9032 44.3348 34.0493 44.2138 34.1954 44.0687C35.2787 43.0253 35.974 41.648 36.168 40.1614C36.2466 39.3258 36.6221 38.5453 37.2273 37.9598C37.8096 37.3576 38.5934 36.9876 39.4311 36.9195C40.9207 36.7052 42.3007 36.0181 43.365 34.9608C44.4293 33.9034 45.1209 32.5325 45.3365 31.0525C45.3892 30.1786 45.7667 29.3551 46.3958 28.7421C46.9926 28.1516 47.7838 27.795 48.6241 27.738C49.9925 27.551 51.2688 26.9465 52.2769 26.0082C53.4247 26.9542 54.3971 28.0923 55.1504 29.3711C55.1041 29.4331 55.0511 29.49 54.9921 29.5404C54.411 30.1479 53.6282 30.5261 52.7883 30.605C51.2971 30.8154 49.9151 31.5013 48.85 32.5593C47.7851 33.6174 47.0947 34.9904 46.8829 36.4719C46.797 37.3046 46.4241 38.0823 45.8272 38.6731C45.2302 39.2641 44.4461 39.6317 43.6075 39.7138C42.1135 39.9264 40.7285 40.6121 39.658 41.669C38.5876 42.7261 37.8888 44.0978 37.6656 45.5808C37.6001 46.1719 37.3957 46.7396 37.069 47.238C35.8197 46.5011 34.7009 45.5653 33.7571 44.4679ZM43.8267 49.1372C42.5912 49.1386 41.3615 48.9675 40.1739 48.6292C40.5802 47.8767 40.8443 47.0567 40.9531 46.2098C41.0385 45.3789 41.4097 44.6026 42.0042 44.0121C42.5986 43.4215 43.3799 43.0527 44.2163 42.9679C45.7081 42.7561 47.0908 42.07 48.1576 41.0124C49.2242 39.9549 49.9176 38.5825 50.1339 37.1009C50.2192 36.27 50.5905 35.4938 51.1849 34.9032C51.7794 34.3126 52.5607 33.9438 53.3971 33.859C54.5197 33.714 55.5897 33.2987 56.5141 32.6493C57.0275 34.5823 57.0882 36.6063 56.6919 38.5662C56.2956 40.5261 55.4525 42.3699 54.2276 43.9559C53.0027 45.5418 51.4284 46.8281 49.6254 47.7157C47.8225 48.6034 45.8389 49.069 43.8267 49.0767V49.1372Z" fill="#0D0E14"/>
</svg>
