<svg width="199" height="72" viewBox="0 0 199 72" fill="none" xmlns="http://www.w3.org/2000/svg">
<rect x="0.568115" y="0.5" width="197.068" height="71" rx="9.5" stroke="#A1AEBF"/>
<path d="M59.9609 30.6332C60.3627 30.6332 60.4966 30.7773 60.4966 31.1654V39.9472H65.0391C65.4297 39.9472 65.5748 40.0914 65.5748 40.4795V41.2556C65.5748 41.6437 65.4297 41.7879 65.0391 41.7879H59.0569C58.6663 41.7879 58.51 41.6437 58.51 41.2556V31.1654C58.51 30.7773 58.6663 30.6332 59.0569 30.6332H59.9609Z" fill="#0D0E14"/>
<path d="M69.5369 34.503C69.5369 31.9416 71.1663 30.4004 74.0012 30.4004C76.836 30.4004 78.4655 31.9416 78.4655 34.503V37.9182C78.4655 40.4795 76.8249 42.0208 74.0012 42.0208C71.1775 42.0208 69.5369 40.4795 69.5369 37.9182V34.503ZM76.5905 34.503C76.5905 33.0615 75.6865 32.2854 74.057 32.2854C72.4275 32.2854 71.5347 33.0726 71.5347 34.503V37.9403C71.5347 39.3929 72.4275 40.158 74.057 40.158C75.6865 40.158 76.5905 39.3596 76.5905 37.9403V34.503Z" fill="#0D0E14"/>
<path d="M91.7582 35.6784C92.1935 35.6784 92.294 35.8225 92.294 36.2106V38.3174C92.3058 38.8136 92.2057 39.3062 92.001 39.7589C91.7962 40.2118 91.4922 40.6133 91.1109 40.9342C90.1641 41.6832 88.9704 42.0547 87.7627 41.9765C84.872 41.9765 83.2983 40.4352 83.2983 37.8738V34.4365C83.2983 31.9084 84.9278 30.3561 87.7627 30.3561C89.9948 30.3561 91.4457 31.232 92.0596 32.984C92.094 33.0498 92.1124 33.1227 92.1134 33.1968C92.1144 33.2709 92.098 33.3443 92.0655 33.411C92.033 33.4777 91.9853 33.5361 91.9261 33.5813C91.867 33.6264 91.798 33.6574 91.7248 33.6714L90.8542 33.9708C90.4748 34.1039 90.3185 34.0263 90.1846 33.6382C89.9996 33.1646 89.6611 32.7656 89.2225 32.5046C88.7839 32.2436 88.2703 32.1352 87.7627 32.1967C86.122 32.1967 85.2292 32.984 85.2292 34.4143V37.9404C85.2292 39.3929 86.1332 40.158 87.7627 40.158C89.3922 40.158 90.3966 39.4151 90.3966 38.3285V37.5079H87.9747C87.5729 37.5079 87.4278 37.3527 87.4278 36.9646V36.2106C87.4278 35.8225 87.5729 35.6784 87.9747 35.6784H91.7582Z" fill="#0D0E14"/>
<path d="M96.9033 34.503C96.9033 31.9416 98.5328 30.4004 101.368 30.4004C104.203 30.4004 105.832 31.9416 105.832 34.503V37.9182C105.832 40.4795 104.191 42.0208 101.368 42.0208C98.544 42.0208 96.9033 40.4795 96.9033 37.9182V34.503ZM103.946 34.503C103.946 33.0615 103.042 32.2854 101.423 32.2854C99.8051 32.2854 98.89 33.0726 98.89 34.503V37.9403C98.89 39.3929 99.794 40.158 101.423 40.158C103.053 40.158 103.946 39.3596 103.946 37.9403V34.503Z" fill="#0D0E14"/>
<path d="M111.089 30.9547C111.089 30.7108 111.167 30.6332 111.412 30.6332H111.926C112.171 30.6332 112.227 30.7108 112.227 30.9547V41.4663C112.227 41.7102 112.227 41.7879 111.926 41.7879H111.412C111.167 41.7879 111.089 41.7102 111.089 41.4663V30.9547Z" fill="#0D0E14"/>
<path d="M122.395 30.6332C123.324 30.6332 124.215 31 124.873 31.653C125.53 32.3058 125.899 33.1914 125.899 34.1149C125.899 35.0383 125.53 35.9239 124.873 36.5768C124.215 37.2297 123.324 37.5965 122.395 37.5965H119.046V41.4663C119.046 41.7102 118.991 41.7879 118.756 41.7879H118.232C117.997 41.7879 117.908 41.7102 117.908 41.4663V30.9547C117.908 30.7108 117.997 30.6332 118.232 30.6332H122.395ZM122.294 36.4988C122.614 36.4988 122.93 36.4363 123.225 36.3149C123.52 36.1933 123.789 36.0153 124.015 35.7908C124.24 35.5664 124.42 35.2998 124.542 35.0067C124.664 34.7134 124.727 34.399 124.727 34.0816C124.727 33.7641 124.664 33.4498 124.542 33.1565C124.42 32.8633 124.24 32.5968 124.015 32.3724C123.789 32.1479 123.52 31.9699 123.225 31.8483C122.93 31.7269 122.614 31.6644 122.294 31.6644H118.946V36.4988H122.294Z" fill="#0D0E14"/>
<path d="M134.616 30.4115C135.478 30.317 136.347 30.5012 137.095 30.9366C137.842 31.3722 138.43 32.0357 138.768 32.8287C138.857 33.0061 138.768 33.1503 138.589 33.239L138.098 33.4607C137.897 33.5383 137.819 33.5273 137.696 33.3166C137.443 32.728 137.009 32.2346 136.455 31.9077C135.901 31.5808 135.257 31.4374 134.616 31.4981C132.73 31.4981 131.703 32.241 131.703 33.5716C131.692 33.9782 131.829 34.3752 132.09 34.689C132.35 35.0028 132.716 35.2124 133.12 35.2792C133.721 35.4737 134.343 35.5929 134.973 35.634C135.736 35.6744 136.488 35.8276 137.205 36.0886C137.755 36.2615 138.229 36.617 138.546 37.0955C138.863 37.5741 139.004 38.1465 138.946 38.7165C138.946 40.79 137.428 42.043 134.638 42.043C133.723 42.147 132.8 41.9363 132.022 41.446C131.244 40.9558 130.659 40.2154 130.364 39.3485C130.344 39.3091 130.333 39.2657 130.332 39.2216C130.331 39.1774 130.34 39.1338 130.359 39.0935C130.377 39.0533 130.404 39.0174 130.437 38.9887C130.471 38.9599 130.51 38.9389 130.553 38.9272L131.044 38.7498C131.083 38.734 131.125 38.7265 131.166 38.7276C131.208 38.7287 131.249 38.7385 131.287 38.7562C131.325 38.7739 131.358 38.7992 131.386 38.8306C131.413 38.862 131.434 38.8986 131.446 38.9383C131.696 39.5646 132.14 40.0958 132.714 40.4547C133.288 40.8135 133.962 40.9815 134.638 40.9341C136.748 40.9341 137.786 40.2023 137.786 38.7165C137.806 38.326 137.685 37.9411 137.446 37.6304C137.207 37.3198 136.864 37.1035 136.48 37.02C135.902 36.8489 135.307 36.7447 134.705 36.7096L133.5 36.5543C133.123 36.4748 132.75 36.3748 132.384 36.2549C132.022 36.1464 131.685 35.9694 131.39 35.7338C131.094 35.4675 130.861 35.1397 130.707 34.7737C130.552 34.4077 130.481 34.0125 130.498 33.616C130.576 31.6755 132.038 30.4115 134.616 30.4115Z" fill="#0D0E14"/>
<path d="M144.962 37.9957C145.009 38.7799 145.356 39.5165 145.932 40.055C146.508 40.5936 147.269 40.8934 148.059 40.8934C148.849 40.8934 149.61 40.5936 150.186 40.055C150.762 39.5165 151.108 38.7799 151.156 37.9957V30.9547C151.156 30.7108 151.234 30.6332 151.48 30.6332H151.993C152.239 30.6332 152.317 30.7108 152.317 30.9547V37.9846C152.317 40.5016 150.821 42.0207 148.065 42.0207C145.308 42.0207 143.812 40.5016 143.812 37.9846V30.9547C143.812 30.7108 143.89 30.6332 144.125 30.6332H144.649C144.884 30.6332 144.962 30.7108 144.962 30.9547V37.9957Z" fill="#0D0E14"/>
<path d="M167.719 30.6332C167.964 30.6332 168.042 30.7109 168.042 30.9548V41.4664C168.042 41.7103 167.964 41.7879 167.719 41.7879H167.25C167.016 41.7879 166.938 41.7103 166.938 41.4664V35.0685C166.938 34.1377 167.001 33.2078 167.127 32.2854H167.06C166.712 33.1289 166.305 33.9476 165.844 34.7359L163.444 38.9383C163.415 39.0112 163.364 39.0735 163.298 39.1171C163.232 39.1606 163.155 39.1833 163.076 39.1822H162.763C162.683 39.1826 162.605 39.1597 162.537 39.1165C162.47 39.0731 162.416 39.0112 162.384 38.9383L159.951 34.6915C159.519 33.9146 159.146 33.1066 158.835 32.2743H158.768C158.882 33.2051 158.942 34.1419 158.946 35.0796V41.4664C158.946 41.7103 158.868 41.7879 158.623 41.7879H158.187C157.942 41.7879 157.864 41.7103 157.864 41.4664V30.9548C157.864 30.7109 157.942 30.6332 158.187 30.6332H158.589C158.681 30.6248 158.773 30.6447 158.853 30.6903C158.933 30.736 158.997 30.8052 159.036 30.8883L162.942 37.7851L166.826 30.9548C166.949 30.7219 167.016 30.6887 167.261 30.6887L167.719 30.6332Z" fill="#0D0E14"/>
<path d="M40.1059 40.1027V48.1194C40.1059 48.4268 39.9831 48.7215 39.7643 48.9387C39.5457 49.156 39.249 49.2781 38.9396 49.2781C38.6304 49.2781 38.3337 49.156 38.115 48.9387C37.8962 48.7215 37.7733 48.4268 37.7733 48.1194V40.1137C38.0981 40.3494 38.4874 40.4809 38.8894 40.4907C39.3276 40.5032 39.7569 40.3662 40.1059 40.1027ZM50.0391 37.7852C49.7431 37.7852 49.4592 37.9021 49.2499 38.11C49.0406 38.3179 48.923 38.6 48.923 38.894V40.2912C48.923 40.5985 49.0459 40.8932 49.2646 41.1105C49.4833 41.3278 49.7799 41.4499 50.0893 41.4499C50.3987 41.4499 50.6953 41.3278 50.914 41.1105C51.1327 40.8932 51.2556 40.5985 51.2556 40.2912V38.9495C51.2643 38.7905 51.2384 38.6315 51.1797 38.4833C51.121 38.3352 51.0309 38.2013 50.9154 38.0908C50.8 37.9804 50.662 37.8959 50.5108 37.8431C50.3596 37.7904 50.1987 37.7707 50.0391 37.7852ZM35.2398 43.1408C34.8382 43.1288 34.4495 42.9976 34.1237 42.7638V50.8027C34.1237 51.1115 34.2472 51.4077 34.467 51.626C34.6868 51.8443 34.9848 51.967 35.2956 51.967C35.6064 51.967 35.9045 51.8443 36.1243 51.626C36.3441 51.4077 36.4675 51.1115 36.4675 50.8027V42.8193C36.1031 43.0533 35.673 43.166 35.2398 43.1408ZM46.4007 35.3791C46.2494 35.3716 46.0983 35.3947 45.9563 35.4471C45.8145 35.4994 45.6848 35.5799 45.5751 35.6836C45.4655 35.7874 45.3783 35.9121 45.3187 36.0504C45.2592 36.1887 45.2285 36.3376 45.2288 36.4879V42.664C45.2288 42.9728 45.3522 43.269 45.572 43.4873C45.7918 43.7056 46.0898 43.8283 46.4007 43.8283C46.7115 43.8283 47.0096 43.7056 47.2293 43.4873C47.4491 43.269 47.5725 42.9728 47.5725 42.664V36.5655C47.5815 36.4055 47.5554 36.2455 47.496 36.0965C47.4366 35.9475 47.3455 35.813 47.2288 35.7023C47.112 35.5917 46.9726 35.5074 46.8201 35.4555C46.6675 35.4035 46.5053 35.385 46.3448 35.4013L46.4007 35.3791ZM42.6953 37.752C42.2748 37.7491 41.8657 37.6175 41.5234 37.375V45.4361C41.5234 45.7449 41.6468 46.041 41.8666 46.2594C42.0864 46.4777 42.3844 46.6003 42.6953 46.6003C43.0061 46.6003 43.3041 46.4777 43.5239 46.2594C43.7437 46.041 43.8671 45.7449 43.8671 45.4361V37.3861C43.5131 37.6481 43.0809 37.7847 42.6395 37.7741L42.6953 37.752ZM32.7063 43.9281V21.408C32.7034 21.1335 32.5916 20.8713 32.3951 20.6782C32.1987 20.4851 31.9335 20.3768 31.6572 20.3768H31.4117C31.1353 20.3768 30.8702 20.4851 30.6737 20.6782C30.4773 20.8713 30.3655 21.1335 30.3625 21.408V43.9281C30.3625 44.2045 30.4731 44.4696 30.6698 44.6651C30.8666 44.8606 31.1334 44.9704 31.4117 44.9704H31.6572C31.9355 44.9704 32.2023 44.8606 32.399 44.6651C32.5958 44.4696 32.7063 44.2045 32.7063 43.9281ZM35.3626 42.287H35.1171C34.8388 42.287 34.572 42.1773 34.3752 41.9818C34.1785 41.7863 34.0679 41.5212 34.0679 41.2447V24.0914C34.0709 23.8169 34.1827 23.5546 34.3791 23.3615C34.5756 23.1684 34.8407 23.0602 35.1171 23.0602H35.3626C35.6389 23.0602 35.9041 23.1684 36.1005 23.3615C36.2969 23.5546 36.4088 23.8169 36.4117 24.0914V41.2669C36.4117 41.5433 36.3012 41.8085 36.1044 42.0039C35.9077 42.1994 35.6408 42.3092 35.3626 42.3092V42.287ZM39.0568 39.648H38.8001C38.5249 39.648 38.2608 39.5394 38.0662 39.346C37.8716 39.1526 37.7622 38.8904 37.7622 38.6168V26.7525C37.7607 26.6162 37.7865 26.4809 37.838 26.3545C37.8894 26.2281 37.9656 26.1131 38.0622 26.0162C38.1587 25.9192 38.2737 25.8423 38.4004 25.7898C38.527 25.7373 38.6629 25.7102 38.8001 25.7102H39.0568C39.3332 25.7132 39.5971 25.8243 39.7914 26.0194C39.9859 26.2146 40.0948 26.478 40.0948 26.7525V38.6168C40.0948 38.8904 39.9854 39.1526 39.7908 39.346C39.5961 39.5394 39.3322 39.648 39.0568 39.648ZM42.7511 36.9314H42.5167C42.2403 36.9314 41.9752 36.8232 41.7787 36.6301C41.5823 36.437 41.4705 36.1748 41.4676 35.9002V29.5135C41.4584 29.3711 41.4787 29.2284 41.5274 29.0941C41.5759 28.9599 41.6518 28.837 41.7502 28.7331C41.8485 28.6291 41.9672 28.5464 42.0992 28.4898C42.231 28.4334 42.373 28.4043 42.5167 28.4047H42.7622C43.0405 28.4047 43.3073 28.5144 43.5041 28.7099C43.7008 28.9054 43.8113 29.1705 43.8113 29.4469V35.8781C43.8128 36.0159 43.7868 36.1526 43.7347 36.2803C43.6827 36.4081 43.6056 36.5243 43.508 36.6223C43.4104 36.7202 43.2944 36.7979 43.1662 36.8511C43.0382 36.9042 42.901 36.9314 42.7622 36.9314H42.7511ZM46.4565 34.5475H46.2109C45.9327 34.5475 45.6658 34.4377 45.4691 34.2422C45.2723 34.0468 45.1618 33.7816 45.1618 33.5052V31.8531C45.1647 31.5785 45.2765 31.3163 45.473 31.1232C45.6694 30.9301 45.9346 30.8219 46.2109 30.8219H46.4565C46.7328 30.8219 46.998 30.9301 47.1944 31.1232C47.3908 31.3163 47.5027 31.5785 47.5056 31.8531V33.5052C47.5056 33.7797 47.3966 34.0432 47.2022 34.2384C47.0079 34.4335 46.744 34.5446 46.4676 34.5475H46.4565Z" fill="#0D0E14"/>
</svg>
