<svg width="199" height="72" viewBox="0 0 199 72" fill="none" xmlns="http://www.w3.org/2000/svg">
<rect x="1.43188" y="0.5" width="197.068" height="71" rx="9.5" stroke="#A1AEBF"/>
<g clip-path="url(#clip0_8_183)">
<path d="M35.0464 44.5089C32.1552 47.3812 27.2587 47.3698 25.8912 43.5416C25.6235 42.7921 25.4094 42.0214 25.252 41.2351C24.6092 38.0244 24.9391 34.6965 26.2001 31.672C27.461 28.6477 29.5963 26.0627 32.3361 24.244C35.0758 22.4253 38.2968 21.4546 41.5919 21.4546C44.8869 21.4546 48.1079 22.4253 50.8476 24.244C53.5873 26.0627 55.7226 28.6477 56.9836 31.6721C58.2446 34.6965 58.5744 38.0244 57.9317 41.2351C57.7742 42.0214 57.5602 42.7921 57.2924 43.5416C55.9249 47.3698 51.0284 47.3812 48.1372 44.5089L43.6743 40.075C43.2479 39.6514 43.292 38.9528 43.4096 38.3652C43.4811 38.0081 43.4444 37.6379 43.3041 37.3014C43.1638 36.9649 42.9263 36.6773 42.6215 36.4751C42.3167 36.2728 41.9584 36.1648 41.5919 36.1648C41.2253 36.1648 40.867 36.2728 40.5622 36.4751C40.2573 36.6773 40.0198 36.9649 39.8795 37.3014C39.7392 37.6379 39.7025 38.0081 39.7741 38.3652C39.8917 38.9528 39.9357 39.6514 39.5093 40.075L35.0464 44.5089Z" fill="#728095"/>
<path d="M71.8059 40.535H76.284V43.1568H68.3872V29.2139H71.8059V40.535Z" fill="#0D0E14"/>
<path d="M82.3929 43.3157C81.3 43.3157 80.3138 43.084 79.4341 42.6205C78.5678 42.1571 77.8814 41.495 77.3749 40.6344C76.8818 39.7737 76.6353 38.7674 76.6353 37.6153C76.6353 36.4766 76.8884 35.4769 77.3949 34.6162C77.9014 33.7423 78.5945 33.0736 79.4741 32.6102C80.3537 32.1468 81.34 31.915 82.4329 31.915C83.5258 31.915 84.5121 32.1468 85.3917 32.6102C86.2714 33.0736 86.9644 33.7423 87.4708 34.6162C87.9773 35.4769 88.2306 36.4766 88.2306 37.6153C88.2306 38.7541 87.9706 39.7604 87.4509 40.6344C86.9444 41.495 86.2447 42.1571 85.3517 42.6205C84.4721 43.084 83.4858 43.3157 82.3929 43.3157ZM82.3929 40.3761C83.046 40.3761 83.5991 40.1378 84.0523 39.6611C84.5188 39.1844 84.752 38.5025 84.752 37.6153C84.752 36.7282 84.5253 36.0463 84.0722 35.5696C83.6324 35.0929 83.086 34.8545 82.4329 34.8545C81.7665 34.8545 81.2134 35.0929 80.7735 35.5696C80.3337 36.033 80.1138 36.7149 80.1138 37.6153C80.1138 38.5025 80.3271 39.1844 80.7536 39.6611C81.1934 40.1378 81.7399 40.3761 82.3929 40.3761Z" fill="#0D0E14"/>
<path d="M93.6826 31.915C94.469 31.915 95.1554 32.0739 95.7418 32.3917C96.3415 32.7095 96.8014 33.1266 97.1213 33.643V32.0739H100.54V43.1369C100.54 44.1565 100.333 45.0768 99.9201 45.8976C99.5203 46.7319 98.9005 47.3939 98.0609 47.8838C97.2346 48.3738 96.2016 48.6188 94.9622 48.6188C93.3095 48.6188 91.97 48.2282 90.9437 47.4469C89.9176 46.6789 89.331 45.6328 89.1844 44.3087H92.5631C92.6697 44.7324 92.923 45.0635 93.3228 45.3019C93.7226 45.5534 94.2158 45.6792 94.8022 45.6792C95.5086 45.6792 96.0683 45.4739 96.4815 45.0635C96.908 44.6663 97.1213 44.0241 97.1213 43.1369V41.5679C96.7881 42.0842 96.3283 42.508 95.7418 42.839C95.1554 43.1568 94.469 43.3157 93.6826 43.3157C92.763 43.3157 91.93 43.084 91.1836 42.6205C90.4373 42.1438 89.8442 41.4751 89.4044 40.6144C88.9779 39.7406 88.7646 38.7343 88.7646 37.5955C88.7646 36.4567 88.9779 35.4571 89.4044 34.5964C89.8442 33.7357 90.4373 33.0736 91.1836 32.6102C91.93 32.1468 92.763 31.915 93.6826 31.915ZM97.1213 37.6153C97.1213 36.7679 96.8814 36.0992 96.4016 35.6093C95.9351 35.1194 95.3619 34.8744 94.6823 34.8744C94.0025 34.8744 93.4228 35.1194 92.9429 35.6093C92.4765 36.086 92.2432 36.7481 92.2432 37.5955C92.2432 38.4429 92.4765 39.1182 92.9429 39.6214C93.4228 40.1113 94.0025 40.3563 94.6823 40.3563C95.3619 40.3563 95.9351 40.1113 96.4016 39.6214C96.8814 39.1314 97.1213 38.4628 97.1213 37.6153Z" fill="#0D0E14"/>
<path d="M107.491 43.3157C106.398 43.3157 105.412 43.084 104.533 42.6205C103.666 42.1571 102.98 41.495 102.473 40.6344C101.98 39.7737 101.734 38.7674 101.734 37.6153C101.734 36.4766 101.987 35.4769 102.493 34.6162C103 33.7423 103.693 33.0736 104.572 32.6102C105.452 32.1468 106.438 31.915 107.531 31.915C108.624 31.915 109.61 32.1468 110.49 32.6102C111.37 33.0736 112.063 33.7423 112.569 34.6162C113.076 35.4769 113.329 36.4766 113.329 37.6153C113.329 38.7541 113.069 39.7604 112.549 40.6344C112.043 41.495 111.343 42.1571 110.45 42.6205C109.57 43.084 108.584 43.3157 107.491 43.3157ZM107.491 40.3761C108.144 40.3761 108.697 40.1378 109.151 39.6611C109.617 39.1844 109.85 38.5025 109.85 37.6153C109.85 36.7282 109.624 36.0463 109.171 35.5696C108.731 35.0929 108.184 34.8545 107.531 34.8545C106.865 34.8545 106.312 35.0929 105.872 35.5696C105.432 36.033 105.212 36.7149 105.212 37.6153C105.212 38.5025 105.426 39.1844 105.852 39.6611C106.292 40.1378 106.838 40.3761 107.491 40.3761Z" fill="#0D0E14"/>
<path d="M116.262 30.922C115.662 30.922 115.169 30.7498 114.783 30.4056C114.409 30.0481 114.223 29.6111 114.223 29.0947C114.223 28.5651 114.409 28.1281 114.783 27.7838C115.169 27.4263 115.662 27.2476 116.262 27.2476C116.849 27.2476 117.328 27.4263 117.701 27.7838C118.088 28.1281 118.281 28.5651 118.281 29.0947C118.281 29.6111 118.088 30.0481 117.701 30.4056C117.328 30.7498 116.849 30.922 116.262 30.922ZM117.961 32.074V43.1568H114.543V32.074H117.961Z" fill="#0D0E14"/>
<path d="M123.257 33.643C123.591 33.1266 124.05 32.7095 124.637 32.3917C125.224 32.0739 125.91 31.915 126.696 31.915C127.616 31.915 128.449 32.1468 129.195 32.6102C129.942 33.0736 130.529 33.7357 130.955 34.5964C131.394 35.4571 131.615 36.4567 131.615 37.5955C131.615 38.7343 131.394 39.7406 130.955 40.6144C130.529 41.4751 129.942 42.1438 129.195 42.6205C128.449 43.084 127.616 43.3157 126.696 43.3157C125.923 43.3157 125.237 43.1568 124.637 42.839C124.05 42.5212 123.591 42.1107 123.257 41.6076V48.44H119.839V32.0739H123.257V33.643ZM128.136 37.5955C128.136 36.7481 127.896 36.086 127.416 35.6093C126.949 35.1194 126.37 34.8744 125.677 34.8744C124.997 34.8744 124.417 35.1194 123.937 35.6093C123.471 36.0992 123.238 36.7679 123.238 37.6153C123.238 38.4628 123.471 39.1314 123.937 39.6214C124.417 40.1113 124.997 40.3563 125.677 40.3563C126.357 40.3563 126.937 40.1113 127.416 39.6214C127.896 39.1182 128.136 38.4429 128.136 37.5955Z" fill="#0D0E14"/>
<path d="M137.346 43.3157C136.373 43.3157 135.507 43.1501 134.747 42.8192C133.988 42.4881 133.387 42.0379 132.948 41.4685C132.508 40.8859 132.262 40.2371 132.208 39.522H135.587C135.627 39.906 135.807 40.2172 136.126 40.4555C136.447 40.6939 136.84 40.8131 137.307 40.8131C137.733 40.8131 138.059 40.7336 138.286 40.5747C138.526 40.4026 138.646 40.1841 138.646 39.9193C138.646 39.6015 138.479 39.3698 138.146 39.2241C137.813 39.0652 137.273 38.8932 136.526 38.7077C135.727 38.5224 135.061 38.3304 134.527 38.1317C133.995 37.9199 133.535 37.5955 133.148 37.1585C132.761 36.7084 132.568 36.1058 132.568 35.3512C132.568 34.7155 132.742 34.1396 133.088 33.6231C133.448 33.0935 133.967 32.6764 134.647 32.3718C135.34 32.0673 136.16 31.915 137.106 31.915C138.505 31.915 139.605 32.2593 140.405 32.9478C141.218 33.6364 141.685 34.55 141.805 35.6888H138.646C138.592 35.3048 138.419 35.0003 138.126 34.7751C137.846 34.55 137.473 34.4375 137.007 34.4375C136.607 34.4375 136.3 34.5169 136.087 34.6758C135.874 34.8214 135.767 35.0267 135.767 35.2915C135.767 35.6093 135.934 35.8477 136.267 36.0066C136.613 36.1655 137.146 36.3244 137.866 36.4832C138.692 36.6951 139.365 36.907 139.885 37.1188C140.405 37.3174 140.858 37.6484 141.244 38.1119C141.644 38.5621 141.851 39.1711 141.865 39.9392C141.865 40.588 141.678 41.1706 141.304 41.687C140.945 42.1902 140.418 42.5874 139.725 42.8787C139.046 43.1701 138.253 43.3157 137.346 43.3157Z" fill="#0D0E14"/>
<path d="M154.372 32.074V43.1568H150.953V41.6473C150.607 42.1372 150.133 42.5345 149.534 42.839C148.947 43.1304 148.295 43.276 147.574 43.276C146.721 43.276 145.968 43.0906 145.315 42.7198C144.662 42.3359 144.156 41.7863 143.796 41.0714C143.436 40.3563 143.256 39.5155 143.256 38.5488V32.074H146.654V38.0921C146.654 38.8336 146.848 39.4095 147.234 39.8201C147.621 40.2305 148.141 40.4358 148.794 40.4358C149.46 40.4358 149.987 40.2305 150.373 39.8201C150.759 39.4095 150.953 38.8336 150.953 38.0921V32.074H154.372Z" fill="#0D0E14"/>
<path d="M170.462 31.9546C171.847 31.9546 172.947 32.3717 173.761 33.2059C174.586 34.04 175 35.1986 175 36.6816V43.1566H171.602V37.1385C171.602 36.4235 171.408 35.8739 171.022 35.49C170.648 35.0927 170.129 34.8941 169.462 34.8941C168.796 34.8941 168.269 35.0927 167.883 35.49C167.51 35.8739 167.323 36.4235 167.323 37.1385V43.1566H163.924V37.1385C163.924 36.4235 163.731 35.8739 163.345 35.49C162.971 35.0927 162.451 34.8941 161.785 34.8941C161.119 34.8941 160.592 35.0927 160.206 35.49C159.832 35.8739 159.646 36.4235 159.646 37.1385V43.1566H156.228V32.0738H159.646V33.4641C159.993 33.0006 160.446 32.6365 161.006 32.3717C161.565 32.0936 162.199 31.9546 162.904 31.9546C163.745 31.9546 164.491 32.1333 165.144 32.4908C165.81 32.8484 166.33 33.3582 166.704 34.0202C167.09 33.4111 167.616 32.9145 168.283 32.5306C168.949 32.1466 169.676 31.9546 170.462 31.9546Z" fill="#0D0E14"/>
</g>
<defs>
<clipPath id="clip0_8_183">
<rect width="150.068" height="40" fill="white" transform="translate(24.9319 16)"/>
</clipPath>
</defs>
</svg>
