<svg width="199" height="72" viewBox="0 0 199 72" fill="none" xmlns="http://www.w3.org/2000/svg">
<rect x="1.2959" y="0.5" width="197.068" height="71" rx="9.5" stroke="#A1AEBF"/>
<path d="M52.6091 33.0173C55.4982 33.0173 56.1481 34.2564 56.1481 35.8019C56.1481 37.4401 55.3619 38.6137 52.6211 38.6137C49.8978 38.6137 49.1106 37.5082 49.1106 35.8019C49.1106 34.1228 49.9687 33.0173 52.6091 33.0173Z" fill="#0D0E14"/>
<path d="M82.8013 33.0173C85.6903 33.0173 86.3403 34.2564 86.3403 35.8019C86.3403 37.4401 85.5531 38.6137 82.8132 38.6137C80.0908 38.6137 79.3027 37.5082 79.3027 35.8019C79.3027 34.1228 80.1608 33.0173 82.8013 33.0173Z" fill="#0D0E14"/>
<path fill-rule="evenodd" clip-rule="evenodd" d="M27.03 51.9092V19.6792H173.027V51.9092H27.03ZM96.6119 50.091H171.186V21.4974H96.6119V50.091ZM52.6228 41.3574C57.7518 41.3574 59.908 39.1728 59.908 35.761C59.908 32.2937 57.4793 30.2328 52.6228 30.2328C47.8409 30.2328 45.3238 32.471 45.3238 35.761C45.3238 39.4737 47.9643 41.3574 52.6228 41.3574ZM34.7905 30.4783V41.1937H45.1424V38.3401H38.5358V30.4783H34.7905ZM71.4937 41.1937L71.397 40.1556C70.1441 41.0385 68.6191 41.4634 67.0837 41.3574C64.7756 41.3574 62.8532 40.6747 61.7751 39.2965C61.064 38.2903 60.705 37.0825 60.7523 35.8565C60.7119 34.6562 61.0834 33.4777 61.8064 32.5119C62.8974 31.1747 64.875 30.2874 67.8193 30.2874C71.2064 30.2874 73.1969 31.311 74.0531 33.031C74.2369 33.4361 74.3449 33.8707 74.3716 34.3137H70.7884C70.6981 34.0445 70.5301 33.8072 70.3051 33.631C69.5913 33.1637 68.7389 32.9477 67.8856 33.0174C67.385 32.9575 66.8772 33.0031 66.3959 33.1514C65.9145 33.2997 65.4705 33.5471 65.0932 33.8774C64.6647 34.4565 64.4636 35.1694 64.527 35.8837C64.4773 36.5653 64.6622 37.2435 65.0518 37.8083C65.4325 38.1586 65.8851 38.4238 66.3787 38.5864C66.8725 38.7488 67.3957 38.8047 67.9132 38.7501C68.9409 38.8327 69.9613 38.5197 70.7608 37.8765C70.9325 37.6645 71.0509 37.4152 71.1061 37.1492H67.2503V34.8465H74.4656V41.1937H71.4937ZM82.815 41.3574C87.9431 41.3574 90.1003 39.1728 90.1003 35.761C90.1003 32.2937 87.6678 30.2328 82.815 30.2328C78.0331 30.2328 75.516 32.471 75.516 35.761C75.516 39.4737 78.1565 41.3574 82.815 41.3574Z" fill="#0D0E14"/>
<path d="M102.921 41.1527V30.4373H105.591V41.1527H102.921Z" fill="#0D0E14"/>
<path d="M119.301 36.6755C118.624 37.5491 117.46 37.9482 115.818 37.9582C115.472 37.9582 110.882 37.9446 110.882 37.9446V41.1528H108.27V30.4373H115.819C116.424 30.3741 117.036 30.4375 117.614 30.6232C118.193 30.809 118.725 31.113 119.178 31.5155C119.774 32.2829 120.064 33.2398 119.993 34.2046C120.054 35.082 119.81 35.9538 119.301 36.6755ZM117.159 33.1818C116.882 32.7728 116.287 32.5455 115.279 32.5455H110.869V35.8073H115.25C116.328 35.8073 116.896 35.5891 117.159 35.1655C117.314 34.867 117.381 34.5309 117.352 34.1964C117.375 33.8475 117.309 33.4985 117.159 33.1818Z" fill="#0D0E14"/>
<path d="M127.693 41.3164C122.771 41.3164 121.265 39.4982 121.265 37.6991H124.057C124.057 38.5864 125.287 39.2555 127.817 39.2555C130.332 39.2555 130.996 38.8182 130.996 38.1082C130.996 37.3164 130.499 37.071 128.162 36.8119C127.702 36.771 126.449 36.621 125.978 36.5528C122.664 36.1837 121.388 35.2146 121.388 33.481C121.388 31.6519 123.255 30.2737 127.305 30.2737C131.701 30.2737 133.388 31.98 133.388 33.7546H130.626C130.626 32.8537 129.589 32.3346 127.142 32.3346C124.626 32.3346 124.087 32.6755 124.087 33.3446C124.087 34.041 124.64 34.2591 127.31 34.5728C127.918 34.6555 129.273 34.8055 129.645 34.8455C132.466 35.1319 133.738 36.1419 133.738 37.93C133.733 40.06 131.798 41.3164 127.693 41.3164Z" fill="#0D0E14"/>
<path d="M141.6 41.3027C137.993 41.3027 135.643 39.8963 135.643 36.9391V30.4373H138.282V36.9754C138.282 38.3273 139.403 39.2273 141.711 39.2273C143.798 39.2273 145.043 38.3818 145.043 36.9754V30.4373H147.656V37.1818C147.656 39.87 145.471 41.3027 141.6 41.3027Z" fill="#0D0E14"/>
<path d="M161.963 41.1527V34L158.575 41.1527H156.005L152.715 34V41.1527H150.229V30.4373H153.597L157.329 38.6L161.144 30.4373H164.459V41.1527H161.963Z" fill="#0D0E14"/>
</svg>
