<svg width="199" height="72" viewBox="0 0 199 72" fill="none" xmlns="http://www.w3.org/2000/svg">
<rect x="0.840088" y="0.5" width="197.068" height="71" rx="9.5" stroke="#A1AEBF"/>
<path d="M51.7915 16.9091C49.3882 16.9091 47.0083 17.3912 44.7879 18.3277C42.5676 19.2643 40.5502 20.637 38.8507 22.3675C37.1513 24.0981 35.8033 26.1525 34.8835 28.4136C33.9639 30.6746 33.4905 33.0981 33.4905 35.5454C33.4905 37.9927 33.9639 40.4162 34.8835 42.6773C35.8033 44.9384 37.1513 46.9927 38.8507 48.7233C40.5502 50.4539 43.1657 51.427 45.3861 52.3636C47.6065 53.3001 49.3882 54.1818 51.7915 54.1818V45.7306C50.5898 45.7306 49.2415 45.1047 48.1313 44.6363C47.0211 44.1681 46.1708 42.9996 45.3211 42.1344C44.4714 41.2691 43.7974 40.2419 43.3376 39.1114C42.8776 37.9808 42.641 37.2237 42.641 36C42.641 34.7762 42.8776 33.11 43.3376 31.9795C43.7974 30.849 44.4714 29.8217 45.3211 28.9565C46.1708 28.0912 47.1795 27.4048 48.2897 26.9366C49.3999 26.4682 50.5898 26.2272 51.7915 26.2272V16.9091Z" fill="#0D0E14"/>
<path d="M52.2491 41.4545C55.534 41.4545 58.1969 38.809 58.1969 35.5454C58.1969 32.2819 55.534 29.6364 52.2491 29.6364C48.9641 29.6364 46.3013 32.2819 46.3013 35.5454C46.3013 38.809 48.9641 41.4545 52.2491 41.4545Z" fill="#0D0E14"/>
<path d="M33.4905 36C33.4905 38.3876 33.9757 40.752 34.9184 42.9579C35.8611 45.1638 37.2428 47.1681 38.9847 48.8565C40.7267 50.5448 42.7945 51.8841 45.0704 52.7978C47.3463 53.7115 49.7856 54.1818 52.249 54.1818C54.7123 54.1818 57.1517 53.7115 59.4276 52.7978C61.7035 51.8841 63.7713 50.5448 65.5133 48.8565C67.2551 47.1681 68.6368 45.1638 69.5796 42.9579C70.5222 40.752 71.0075 38.3876 71.0075 36H61.6282C61.6282 37.1939 61.3857 38.376 60.9142 39.479C60.4429 40.5819 59.7521 41.5841 58.8811 42.4283C58.0102 43.2724 56.9762 43.942 55.8383 44.3989C54.7003 44.8558 53.4807 45.0909 52.249 45.0909C51.0172 45.0909 49.7976 44.8558 48.6597 44.3989C47.5217 43.942 46.4878 43.2724 45.6168 42.4283C44.7459 41.5841 44.0551 40.5819 43.5837 39.479C43.1123 38.376 42.8697 37.1939 42.8697 36H33.4905Z" fill="#0D0E14"/>
<path d="M58.1969 36C58.1969 34.3123 57.5702 32.6937 56.4549 31.5003C55.3394 30.3068 53.8266 29.6364 52.2491 29.6364C50.6717 29.6364 49.1589 30.3068 48.0434 31.5003C46.9279 32.6937 46.3013 34.3123 46.3013 36H52.2491H58.1969Z" fill="#0D0E14"/>
<path d="M81.073 28.7273H78.3279V41.4546H81.073V28.7273Z" fill="#0D0E14"/>
<path d="M81.9883 36.9091C81.9883 39.7196 84.1562 41.4546 87.021 41.4546C89.8859 41.4546 92.0538 39.7196 92.0538 36.9091C92.0538 34.0986 89.8859 32.3636 87.021 32.3636C84.1562 32.3636 81.9883 34.0986 81.9883 36.9091ZM84.4272 36.9091C84.4272 35.2436 85.5112 34.272 87.021 34.272C88.5309 34.272 89.6149 35.2436 89.6149 36.9091C89.6149 38.5746 88.5309 39.5462 87.021 39.5462C85.5112 39.5462 84.4272 38.5746 84.4272 36.9091Z" fill="#0D0E14"/>
<path d="M99.9456 32.6098V33.7875H99.7703C99.2444 33.0317 98.4029 32.3636 96.8954 32.3636C94.8269 32.3636 92.9688 34.1216 92.9688 36.8287C92.9688 39.5359 94.8269 41.2938 96.8954 41.2938C98.4029 41.2938 99.2444 40.6082 99.7352 39.9227H99.9105V40.7665C99.9105 42.4541 98.9288 43.2275 97.4914 43.2275C96.054 43.2275 95.3177 42.4541 95.0197 41.452L93.0389 42.3134C93.4946 43.6318 94.8269 45.0909 97.5265 45.0909C100.296 45.0909 102.119 43.6318 102.119 40.8191V32.6098H99.9456ZM97.5615 39.3953C96.1942 39.3953 95.1775 38.4109 95.1775 36.8287C95.1775 35.2466 96.1942 34.2622 97.5615 34.2622C98.9288 34.2622 99.9456 35.2466 99.9456 36.8287C99.9456 38.4109 98.9288 39.3953 97.5615 39.3953Z" fill="#0D0E14"/>
<path d="M103.949 36.9091C103.949 39.7196 106.117 41.4546 108.982 41.4546C111.847 41.4546 114.015 39.7196 114.015 36.9091C114.015 34.0986 111.847 32.3636 108.982 32.3636C106.117 32.3636 103.949 34.0986 103.949 36.9091ZM106.388 36.9091C106.388 35.2436 107.472 34.272 108.982 34.272C110.492 34.272 111.576 35.2436 111.576 36.9091C111.576 38.5746 110.492 39.5462 108.982 39.5462C107.472 39.5462 106.388 38.5746 106.388 36.9091Z" fill="#0D0E14"/>
<path d="M115.845 29.4336C115.845 30.3915 116.447 31.0489 117.218 31.0489C117.989 31.0489 118.59 30.3915 118.59 29.4336C118.59 28.4757 117.989 27.8182 117.218 27.8182C116.447 27.8182 115.845 28.4757 115.845 29.4336ZM118.189 32.1383H116.246V41.4546H118.189V32.1383Z" fill="#0D0E14"/>
<path d="M120.42 45.0909H122.629V40.3585H122.804C123.295 41.0756 124.136 41.7567 125.644 41.7567C127.712 41.7567 129.571 39.9642 129.571 37.0602C129.571 34.1562 127.712 32.3636 125.644 32.3636C124.136 32.3636 123.295 33.0448 122.77 33.8157H122.594V32.6146H120.42V45.0909ZM124.978 39.8208C123.611 39.8208 122.594 38.8169 122.594 37.0602C122.594 35.3035 123.611 34.2996 124.978 34.2996C126.345 34.2996 127.362 35.3035 127.362 37.0602C127.362 38.8169 126.345 39.8208 124.978 39.8208Z" fill="#0D0E14"/>
<path d="M131.737 35.0181C131.737 36.7183 133.264 37.3429 135.202 37.6899L135.687 37.7766C136.841 37.9847 137.363 38.245 137.363 38.8002C137.363 39.3554 136.841 39.789 135.761 39.789C134.68 39.789 133.805 39.3727 133.562 38.1235L131.401 38.644C131.718 40.4483 133.338 41.4546 135.761 41.4546C138.108 41.4546 139.636 40.431 139.636 38.6267C139.636 36.8223 138.071 36.3366 135.985 35.955L135.5 35.8682C134.531 35.6947 134.009 35.4518 134.009 34.8793C134.009 34.3588 134.494 34.0292 135.388 34.0292C136.283 34.0292 136.916 34.3761 137.139 35.313L139.264 34.7058C138.817 33.3179 137.457 32.3636 135.388 32.3636C133.189 32.3636 131.737 33.3179 131.737 35.0181Z" fill="#0D0E14"/>
<path d="M149.702 41.3103V32.3636H147.3V36.9813C147.3 38.6407 146.443 39.6147 144.974 39.6147C143.678 39.6147 142.954 38.9474 142.954 37.5945V32.3636H140.551V37.7028C140.551 39.9214 142.02 41.4546 144.231 41.4546C145.965 41.4546 146.767 40.7331 147.148 39.9755H147.338V41.3103H149.702Z" fill="#0D0E14"/>
<path d="M151.532 32.5079V41.4546H153.941V36.1155C153.941 34.8889 154.553 34.2035 155.661 34.2035C156.617 34.2035 157.19 34.7085 157.19 35.6826V41.4546H159.599V36.1155C159.599 34.8889 160.211 34.2035 161.319 34.2035C162.276 34.2035 162.849 34.7085 162.849 35.6826V41.4546H165.258V35.5743C165.258 33.4098 163.843 32.3636 162.084 32.3636C160.536 32.3636 159.829 33.013 159.37 33.7706H159.178C158.738 32.9229 157.955 32.3636 156.579 32.3636C155.202 32.3636 154.456 32.9408 154.094 33.6263H153.902V32.5079H151.532Z" fill="#0D0E14"/>
</svg>
