<svg width="199" height="72" viewBox="0 0 199 72" fill="none" xmlns="http://www.w3.org/2000/svg">
<rect x="0.635986" y="0.5" width="197.068" height="71" rx="9.5" stroke="#A1AEBF"/>
<path d="M75.1024 44.8054C74.4262 44.8424 73.7573 44.6491 73.2038 44.2569C72.9726 44.0845 72.7864 43.8581 72.6616 43.5973C72.5368 43.3364 72.4771 43.049 72.4876 42.7597V32.1654C72.4821 32.1206 72.4868 32.075 72.5014 32.0323C72.516 31.9896 72.5401 31.9508 72.5719 31.9188C72.6037 31.8868 72.6423 31.8626 72.6848 31.848C72.7273 31.8332 72.7727 31.8285 72.8173 31.834H74.7272C74.9432 31.834 75.0455 31.9483 75.0455 32.1654V41.9369C75.0455 42.3712 75.2388 42.5883 75.6367 42.5883C75.8054 42.5953 75.9741 42.5761 76.1369 42.5312C76.3643 42.5312 76.4894 42.5997 76.5007 42.8054L76.6713 44.234C76.6795 44.2757 76.6787 44.3186 76.669 44.36C76.6593 44.4012 76.6409 44.4401 76.615 44.4736C76.5892 44.5072 76.5564 44.5348 76.5192 44.5546C76.4818 44.5744 76.4406 44.5859 76.3984 44.5883C75.9801 44.7273 75.5429 44.8005 75.1024 44.8054Z" fill="#0D0E14"/>
<path d="M85.8458 43.5826C84.8861 44.3797 83.68 44.8157 82.4351 44.8157C81.1902 44.8157 79.9842 44.3797 79.0245 43.5826C78.181 42.7266 77.7078 41.5703 77.7078 40.3654C77.7078 39.1605 78.181 38.0043 79.0245 37.1483C79.9861 36.3552 81.1914 35.9219 82.4351 35.9219C83.6789 35.9219 84.8842 36.3552 85.8458 37.1483C86.6699 38.0122 87.13 39.1628 87.13 40.3597C87.13 41.5566 86.6699 42.7072 85.8458 43.5711V43.5826ZM80.8208 42.074C81.2662 42.4796 81.8455 42.7042 82.4465 42.7042C83.0475 42.7042 83.6269 42.4796 84.0722 42.074C84.4754 41.6082 84.6973 41.0115 84.6973 40.394C84.6973 39.7766 84.4754 39.1799 84.0722 38.714C83.6269 38.3085 83.0475 38.0838 82.4465 38.0838C81.8455 38.0838 81.2662 38.3085 80.8208 38.714C80.4177 39.1799 80.1957 39.7766 80.1957 40.394C80.1957 41.0115 80.4177 41.6082 80.8208 42.074Z" fill="#0D0E14"/>
<path d="M97.6465 36.2111C97.8625 36.2111 97.9648 36.3254 97.9648 36.5426V44.7368C97.9847 45.29 97.8817 45.8405 97.6634 46.3485C97.4452 46.8566 97.1171 47.3094 96.7029 47.674C95.7836 48.462 94.6015 48.8703 93.3946 48.8168C92.3045 48.8554 91.2289 48.5562 90.3136 47.9597C89.9228 47.7018 89.5889 47.3656 89.3327 46.9725C89.0765 46.5792 88.9035 46.1373 88.8243 45.674C88.8243 45.4454 88.8243 45.3426 89.1313 45.3426H91.0412C91.1223 45.3453 91.201 45.3717 91.2675 45.4183C91.3341 45.465 91.3858 45.5299 91.4164 45.6054C91.5403 45.9525 91.7873 46.2415 92.1099 46.4168C92.5032 46.6208 92.9409 46.723 93.3832 46.714C93.6502 46.7287 93.9173 46.6898 94.1691 46.5995C94.421 46.5093 94.6523 46.3694 94.8498 46.1883C95.0302 45.9988 95.1705 45.7744 95.2624 45.529C95.3542 45.2835 95.3956 45.0218 95.3841 44.7597V44.0397C94.7003 44.5453 93.868 44.8068 93.0194 44.7826C92.4255 44.8043 91.8334 44.7052 91.2785 44.4911C90.7237 44.277 90.2177 43.9525 89.7907 43.5368C88.9711 42.6845 88.5129 41.5453 88.5129 40.3597C88.5129 39.1742 88.9711 38.035 89.7907 37.1826C90.2197 36.7707 90.7264 36.4493 91.2809 36.2373C91.8355 36.0253 92.4265 35.927 93.0194 35.9483C93.8925 35.9251 94.7472 36.2035 95.441 36.7368V36.554C95.4357 36.5102 95.4403 36.4658 95.4543 36.4239C95.4683 36.3822 95.4913 36.344 95.5218 36.3123C95.5523 36.2805 95.5894 36.256 95.6305 36.2405C95.6716 36.225 95.7156 36.2189 95.7593 36.2226L97.6465 36.2111ZM93.2354 42.7483C93.5283 42.7574 93.8197 42.7018 94.0888 42.5852C94.3579 42.4687 94.5983 42.2942 94.7929 42.074C95.171 41.5834 95.3761 40.9803 95.3761 40.3597C95.3761 39.7391 95.171 39.1362 94.7929 38.6454C94.599 38.4283 94.36 38.2563 94.093 38.1418C93.8258 38.0272 93.537 37.973 93.2468 37.9826C92.9505 37.9732 92.6558 38.0286 92.383 38.1451C92.1101 38.2615 91.8657 38.4362 91.6665 38.6568C91.2478 39.1262 91.0276 39.7412 91.0526 40.3711C91.0322 40.9949 91.2475 41.6034 91.6552 42.074C91.8548 42.2941 92.0993 42.4684 92.3721 42.5847C92.6448 42.7011 92.9393 42.7568 93.2354 42.7483Z" fill="#0D0E14"/>
<path d="M107.776 43.5824C106.815 44.3754 105.609 44.8088 104.366 44.8088C103.122 44.8088 101.916 44.3754 100.955 43.5824C100.13 42.7166 99.6697 41.5641 99.6697 40.3653C99.6697 39.1665 100.13 38.014 100.955 37.1481C101.917 36.3572 103.122 35.925 104.366 35.925C105.609 35.925 106.814 36.3572 107.776 37.1481C108.6 38.012 109.06 39.1626 109.06 40.3596C109.06 41.5565 108.6 42.7071 107.776 43.571V43.5824ZM102.74 42.0738C102.958 42.2823 103.215 42.4452 103.496 42.553C103.777 42.6609 104.076 42.7118 104.377 42.7024C104.676 42.7102 104.973 42.6588 105.252 42.5509C105.531 42.443 105.786 42.2809 106.003 42.0738C106.399 41.6048 106.617 41.0094 106.617 40.3938C106.617 39.7783 106.399 39.1829 106.003 38.7138C105.786 38.5069 105.531 38.3447 105.252 38.2369C104.973 38.129 104.676 38.0775 104.377 38.0853C104.076 38.076 103.777 38.1268 103.496 38.2346C103.215 38.3425 102.958 38.5055 102.74 38.7138C102.343 39.1829 102.126 39.7783 102.126 40.3938C102.126 41.0094 102.343 41.6048 102.74 42.0738Z" fill="#0D0E14"/>
<path d="M113.165 34.2682C112.864 34.5326 112.479 34.6783 112.079 34.6783C111.68 34.6783 111.294 34.5326 110.993 34.2682C110.857 34.1389 110.749 33.983 110.674 33.8101C110.6 33.6372 110.562 33.4508 110.562 33.2625C110.562 33.0741 110.6 32.8878 110.674 32.7148C110.749 32.5419 110.857 32.386 110.993 32.2567C111.297 31.9989 111.682 31.8575 112.079 31.8575C112.477 31.8575 112.861 31.9989 113.165 32.2567C113.301 32.386 113.41 32.5419 113.484 32.7148C113.558 32.8878 113.596 33.0741 113.596 33.2625C113.596 33.4508 113.558 33.6372 113.484 33.8101C113.41 33.983 113.301 34.1389 113.165 34.2682ZM113.404 44.8053C112.728 44.8387 112.06 44.6458 111.505 44.2567C111.277 44.0819 111.094 43.8547 110.972 43.5942C110.849 43.3338 110.79 43.0476 110.8 42.7596V36.5425C110.795 36.4977 110.799 36.4521 110.814 36.4093C110.829 36.3666 110.853 36.3278 110.885 36.2958C110.916 36.2638 110.955 36.2396 110.997 36.225C111.04 36.2102 111.085 36.2055 111.13 36.211H113.04C113.256 36.211 113.358 36.3253 113.358 36.5425V41.9367C113.358 42.371 113.551 42.5882 113.938 42.5882C114.11 42.5945 114.283 42.5751 114.45 42.531C114.677 42.531 114.802 42.5996 114.813 42.8053L114.984 44.2339C114.992 44.2756 114.991 44.3185 114.982 44.3598C114.972 44.4011 114.954 44.4399 114.928 44.4734C114.902 44.507 114.869 44.5347 114.832 44.5545C114.794 44.5742 114.753 44.5858 114.711 44.5882C114.289 44.7279 113.848 44.8012 113.404 44.8053Z" fill="#0D0E14"/>
<path d="M122.01 35.9368C122.607 35.9132 123.202 36.0102 123.76 36.2222C124.319 36.4343 124.829 36.7569 125.261 37.1711C126.065 38.0385 126.512 39.1799 126.512 40.3654C126.512 41.5509 126.065 42.6924 125.261 43.5597C124.831 43.9776 124.321 44.3035 123.763 44.5175C123.204 44.7317 122.608 44.8296 122.01 44.8054C121.159 44.8245 120.324 44.5637 119.634 44.0625V48.1883C119.634 48.4054 119.52 48.5083 119.304 48.5083H117.394C117.351 48.5165 117.306 48.5139 117.263 48.5007C117.221 48.4875 117.182 48.4641 117.151 48.4326C117.12 48.4011 117.097 48.3624 117.083 48.3198C117.07 48.2773 117.068 48.2321 117.076 48.1883V38.8168C117.089 38.7252 117.081 38.6317 117.052 38.5437C117.023 38.4558 116.974 38.3758 116.909 38.3103C116.844 38.2448 116.764 38.1956 116.677 38.1664C116.589 38.1373 116.496 38.1292 116.405 38.1425H116.03C115.78 38.1425 115.655 38.0511 115.655 37.8683V36.5197C115.649 36.4363 115.672 36.3533 115.719 36.2847C115.767 36.216 115.836 36.1659 115.916 36.1425C116.309 35.9989 116.726 35.9292 117.144 35.9368C117.561 35.8997 117.98 35.9887 118.347 36.1923C118.713 36.3959 119.011 36.7049 119.202 37.0797C119.568 36.7073 120.006 36.414 120.489 36.2174C120.972 36.0209 121.489 35.9254 122.01 35.9368ZM120.236 42.074C120.439 42.287 120.683 42.4565 120.952 42.5723C121.222 42.688 121.512 42.7477 121.805 42.7477C122.098 42.7477 122.389 42.688 122.658 42.5723C122.928 42.4565 123.171 42.287 123.374 42.074C123.801 41.5952 124.025 40.9679 123.999 40.3254C124.029 39.6824 123.804 39.0536 123.374 38.5768C123.171 38.3639 122.928 38.1944 122.658 38.0787C122.389 37.9628 122.098 37.9031 121.805 37.9031C121.512 37.9031 121.222 37.9628 120.952 38.0787C120.683 38.1944 120.439 38.3639 120.236 38.5768C119.823 39.0621 119.607 39.6869 119.634 40.3254C119.611 40.9635 119.826 41.5871 120.236 42.074Z" fill="#0D0E14"/>
<path d="M131.878 44.8054C130.857 44.8476 129.845 44.6022 128.956 44.0969C128.599 43.8809 128.296 43.5868 128.067 43.2366C127.839 42.8865 127.692 42.4891 127.637 42.074C127.637 41.8454 127.717 41.7312 127.967 41.7312H129.638C129.718 41.7344 129.795 41.7594 129.861 41.8038C129.927 41.8482 129.98 41.91 130.014 41.9826C130.252 42.5997 130.878 42.9083 131.878 42.9083C132.227 42.9244 132.574 42.8537 132.89 42.7026C132.999 42.6532 133.092 42.575 133.16 42.4764C133.228 42.3778 133.268 42.2624 133.276 42.1426C133.276 41.8454 133.094 41.6397 132.731 41.5026C132.299 41.3582 131.853 41.2624 131.401 41.2169C130.864 41.1558 130.333 41.0604 129.809 40.9312C129.299 40.8153 128.836 40.5485 128.479 40.1654C128.268 39.9051 128.113 39.604 128.024 39.2809C127.934 38.9578 127.911 38.6195 127.957 38.2873C128.003 37.9549 128.116 37.6356 128.29 37.3493C128.464 37.0629 128.695 36.8156 128.968 36.6226C129.787 36.0979 130.749 35.8422 131.719 35.8912C132.658 35.8593 133.588 36.0929 134.402 36.5654C134.73 36.7523 135.012 37.0103 135.229 37.3207C135.445 37.6311 135.59 37.986 135.652 38.3597C135.652 38.5883 135.55 38.7026 135.345 38.7026H133.663C133.592 38.7068 133.522 38.6894 133.461 38.6528C133.4 38.6161 133.352 38.5617 133.322 38.4969C133.209 38.2262 132.998 38.0093 132.731 37.8912C132.429 37.7328 132.093 37.654 131.753 37.6626C131.42 37.6444 131.087 37.7113 130.787 37.8569C130.681 37.898 130.589 37.97 130.525 38.0637C130.46 38.1574 130.424 38.2685 130.423 38.3826C130.43 38.5389 130.487 38.6888 130.585 38.8101C130.683 38.9315 130.818 39.0179 130.969 39.0569C131.405 39.2224 131.859 39.3373 132.321 39.3997C132.853 39.4701 133.381 39.5693 133.902 39.6969C134.411 39.8129 134.874 40.0795 135.232 40.4626C135.423 40.6737 135.571 40.9206 135.666 41.1894C135.762 41.4581 135.804 41.7433 135.789 42.0283C135.799 42.4234 135.706 42.8142 135.521 43.1628C135.336 43.5113 135.064 43.8056 134.732 44.0169C133.882 44.5651 132.887 44.8401 131.878 44.8054Z" fill="#0D0E14"/>
<path d="M147.806 44.2339C147.812 44.2745 147.81 44.316 147.801 44.3559C147.791 44.3959 147.774 44.4333 147.749 44.4664C147.725 44.4994 147.694 44.5272 147.659 44.5481C147.624 44.569 147.585 44.5826 147.544 44.5882C147.129 44.7244 146.696 44.7977 146.259 44.8053C145.827 44.8504 145.391 44.7825 144.993 44.6083C144.594 44.4341 144.247 44.1595 143.986 43.8111C143.183 44.5051 142.144 44.8612 141.087 44.8053C140.596 44.8281 140.106 44.7473 139.647 44.5682C139.189 44.3891 138.773 44.1156 138.426 43.7653C138.082 43.3984 137.815 42.9652 137.641 42.492C137.467 42.0187 137.39 41.5151 137.415 41.0111V36.5425C137.415 36.3253 137.517 36.2111 137.733 36.2111H139.643C139.859 36.2111 139.961 36.3253 139.961 36.5425V40.6682C139.941 41.1823 140.115 41.6849 140.45 42.0739C140.617 42.2522 140.821 42.3923 141.046 42.485C141.271 42.5777 141.514 42.6207 141.757 42.6111C142.006 42.622 142.255 42.5833 142.49 42.4969C142.724 42.4106 142.939 42.2785 143.122 42.1082C143.294 41.9288 143.43 41.7155 143.517 41.4816C143.606 41.2476 143.645 40.998 143.633 40.7482V36.5425C143.633 36.3253 143.736 36.2111 143.952 36.2111H145.884C146.1 36.2111 146.203 36.3253 146.203 36.5425V41.9253C146.203 42.3711 146.396 42.5882 146.771 42.5882C146.947 42.5951 147.123 42.5759 147.294 42.5311C147.337 42.5189 147.383 42.5168 147.426 42.5248C147.47 42.5327 147.511 42.5505 147.548 42.5769C147.584 42.6033 147.613 42.6376 147.635 42.6771C147.656 42.7167 147.667 42.7605 147.669 42.8053L147.806 44.2339Z" fill="#0D0E14"/>
<path d="M165.871 44.2339C165.881 44.2748 165.882 44.3176 165.874 44.3589C165.865 44.4002 165.848 44.4393 165.823 44.4731C165.798 44.5069 165.766 44.5348 165.729 44.5547C165.692 44.5747 165.651 44.5861 165.609 44.5882C165.186 44.7264 164.746 44.7996 164.302 44.8053C163.625 44.8404 162.958 44.6474 162.403 44.2568C162.163 44.0894 161.969 43.8653 161.836 43.6042C161.703 43.343 161.636 43.0529 161.642 42.7596V40.0739C161.665 39.5614 161.495 39.0589 161.164 38.6682C161.005 38.4895 160.807 38.3487 160.588 38.2558C160.367 38.163 160.13 38.1204 159.891 38.131C159.676 38.1229 159.462 38.1639 159.264 38.251C159.068 38.3381 158.894 38.4691 158.754 38.6339C158.454 39.0169 158.3 39.4955 158.322 39.9825V44.1996C158.322 44.4167 158.22 44.531 158.004 44.531H156.082C156.038 44.5366 155.992 44.5318 155.95 44.5172C155.907 44.5025 155.868 44.4782 155.837 44.4462C155.805 44.4143 155.781 44.3755 155.766 44.3328C155.751 44.29 155.747 44.2445 155.753 44.1996V40.0739C155.778 39.567 155.619 39.0681 155.309 38.6682C155.17 38.5002 154.996 38.365 154.8 38.2722C154.604 38.1794 154.389 38.1312 154.172 38.131C153.94 38.1217 153.71 38.1616 153.494 38.2483C153.278 38.3349 153.083 38.4664 152.922 38.6339C152.597 39.0046 152.429 39.489 152.456 39.9825V44.1996C152.461 44.2445 152.457 44.29 152.442 44.3328C152.427 44.3755 152.403 44.4143 152.371 44.4462C152.34 44.4782 152.301 44.5025 152.259 44.5172C152.216 44.5318 152.17 44.5366 152.126 44.531H150.273C150.057 44.531 149.954 44.4167 149.954 44.1996V38.8168C149.968 38.7251 149.96 38.6316 149.931 38.5436C149.902 38.4557 149.853 38.3757 149.787 38.3102C149.723 38.2447 149.643 38.1955 149.555 38.1663C149.468 38.1372 149.375 38.1291 149.284 38.1425H148.908C148.658 38.1425 148.533 38.051 148.533 37.8682V36.5196C148.528 36.4362 148.55 36.3532 148.598 36.2846C148.646 36.2159 148.715 36.1658 148.795 36.1425C149.188 35.9988 149.604 35.9291 150.023 35.9367C150.424 35.9023 150.828 35.9828 151.186 36.1689C151.544 36.3549 151.842 36.6389 152.046 36.9882C152.429 36.6228 152.884 36.3407 153.381 36.1598C153.878 35.9789 154.406 35.903 154.934 35.9367C155.447 35.9116 155.957 36.0082 156.426 36.2187C156.894 36.4292 157.305 36.7476 157.628 37.1482C158.005 36.7371 158.467 36.4153 158.982 36.2057C159.497 35.9962 160.052 35.9044 160.607 35.9367C161.103 35.9134 161.598 35.9938 162.062 36.1729C162.526 36.3518 162.948 36.6255 163.301 36.9767C163.647 37.343 163.914 37.7761 164.088 38.2495C164.262 38.7229 164.339 39.227 164.313 39.731V41.9368C164.313 42.371 164.506 42.5882 164.87 42.5882C165.047 42.5964 165.223 42.5772 165.393 42.531C165.629 42.531 165.754 42.6225 165.768 42.8053L165.871 44.2339Z" fill="#0D0E14"/>
<path d="M32.5604 34.7254C33.3991 31.3365 35.3417 28.327 38.0787 26.1763C40.8157 24.0256 44.1898 22.8572 47.6638 22.8572C51.1378 22.8572 54.5119 24.0256 57.2489 26.1763C59.986 28.327 61.9284 31.3365 62.7672 34.7254H61.403C59.1016 34.6913 56.8474 35.3828 54.9569 36.7025C54.8477 36.782 54.7338 36.8545 54.6158 36.9197H54.4566C54.3386 36.8545 54.2247 36.782 54.1156 36.7025C52.2084 35.4133 49.9621 34.7247 47.6638 34.7247C45.3655 34.7247 43.1192 35.4133 41.212 36.7025C41.1029 36.782 40.989 36.8545 40.8709 36.9197H40.7118C40.5938 36.8545 40.4799 36.782 40.3707 36.7025C38.4802 35.3828 36.226 34.6913 33.9246 34.7254H32.5604ZM58.9473 41.8911C59.6476 41.3429 60.5156 41.056 61.403 41.0797H63.2334V37.4111H61.403C59.84 37.3921 58.3128 37.8812 57.0487 38.8054C56.3374 39.3326 55.4769 39.6171 54.5931 39.6171C53.7093 39.6171 52.8488 39.3326 52.1374 38.8054C50.8413 37.8984 49.2999 37.4121 47.7206 37.4121C46.1414 37.4121 44.6 37.8984 43.3039 38.8054C42.5925 39.3326 41.732 39.6171 40.8482 39.6171C39.9644 39.6171 39.1039 39.3326 38.3925 38.8054C37.1129 37.8693 35.5638 37.3797 33.9815 37.4111H32.0942V41.0797H33.9246C34.812 41.056 35.68 41.3429 36.3803 41.8911C37.674 42.7988 39.2137 43.2854 40.7914 43.2854C42.369 43.2854 43.9087 42.7988 45.2025 41.8911C45.9037 41.3446 46.771 41.058 47.6581 41.0797C48.5458 41.0541 49.4144 41.3412 50.1138 41.8911C51.4099 42.7982 52.9513 43.2844 54.5305 43.2844C56.1098 43.2844 57.6512 42.7982 58.9473 41.8911ZM58.9473 48.4511C59.6476 47.9029 60.5156 47.616 61.403 47.6397H63.2334V43.9711H61.403C59.84 43.9521 58.3128 44.4412 57.0487 45.3654C56.3374 45.8926 55.4769 46.1771 54.5931 46.1771C53.7093 46.1771 52.8488 45.8926 52.1374 45.3654C50.8413 44.4584 49.2999 43.9723 47.7206 43.9723C46.1414 43.9723 44.6 44.4584 43.3039 45.3654C42.5925 45.8926 41.732 46.1771 40.8482 46.1771C39.9644 46.1771 39.1039 45.8926 38.3925 45.3654C37.1129 44.4294 35.5638 43.9397 33.9815 43.9711H32.0942V47.6397H33.9246C34.812 47.616 35.68 47.9029 36.3803 48.4511C37.674 49.3588 39.2137 49.8454 40.7914 49.8454C42.369 49.8454 43.9087 49.3588 45.2025 48.4511C45.9037 47.9046 46.771 47.618 47.6581 47.6397C48.5458 47.6141 49.4144 47.9012 50.1138 48.4511C51.4099 49.3582 52.9513 49.8444 54.5305 49.8444C56.1098 49.8444 57.6512 49.3582 58.9473 48.4511Z" fill="#4B5567"/>
</svg>
