<svg width="199" height="72" viewBox="0 0 199 72" fill="none" xmlns="http://www.w3.org/2000/svg">
<rect x="1.36377" y="0.5" width="197.068" height="71" rx="9.5" stroke="#A1AEBF"/>
<path d="M99.5947 42.288H94.5398V28.8619H99.5947V42.288ZM95.0334 41.7975H99.1011V29.3524H95.0334V41.7975ZM106.628 42.288H101.675V28.8619H112.024C113.506 28.7427 114.983 29.1562 116.184 30.0272C116.701 30.4973 117.102 31.0799 117.356 31.7293C117.609 32.3787 117.708 33.0775 117.644 33.7712C117.718 34.9697 117.334 36.1519 116.569 37.0816C115.664 38.1134 114.157 38.6451 112.092 38.6637C111.572 38.6774 107.673 38.6637 106.631 38.6637L106.628 42.288ZM102.166 41.7975H106.135V38.1684H106.382C106.433 38.1684 111.495 38.1841 112.08 38.1684C114.004 38.1517 115.387 37.6779 116.196 36.753C116.877 35.9118 117.215 34.8473 117.144 33.7702C117.204 33.1487 117.12 32.5216 116.898 31.9377C116.675 31.3537 116.32 30.8285 115.86 30.4029C114.746 29.6085 113.383 29.2356 112.017 29.3514H102.169L102.166 41.7975ZM110.975 35.6475H106.101V31.9929H111.008C111.356 31.9451 111.71 31.9854 112.038 32.1101C112.366 32.2348 112.657 32.4397 112.884 32.7059C113.089 33.0462 113.187 33.4406 113.162 33.8369C113.18 34.2048 113.101 34.571 112.93 34.8982C112.696 35.1786 112.393 35.3944 112.051 35.525C111.708 35.6555 111.338 35.6964 110.975 35.6436V35.6475ZM106.595 35.1571H110.975C111.785 35.1571 112.286 34.9894 112.508 34.6441C112.631 34.3932 112.686 34.1152 112.669 33.8369C112.691 33.5446 112.627 33.2524 112.486 32.9953L112.48 32.9865C112.245 32.6432 111.778 32.4833 111.008 32.4833H106.595V35.1571ZM126.653 42.4861C122.22 42.4861 119.574 41.3925 118.566 39.1433C118.401 38.7089 118.29 38.2564 118.233 37.7956L118.189 37.5131H123.463L123.498 37.7191C123.539 37.9282 123.628 38.1251 123.759 38.2939C123.967 38.544 124.662 38.9638 126.968 38.9638C129.741 38.9638 129.741 38.4803 129.741 38.2203C129.741 37.7819 129.42 37.6318 127.159 37.3925L126.729 37.3523C125.878 37.2728 124.802 37.1718 124.311 37.1296C120.164 36.7569 118.313 35.4769 118.313 32.9806C118.313 30.3587 121.463 28.6648 126.339 28.6648C130.317 28.6648 132.88 29.7065 133.955 31.7633C134.21 32.2418 134.382 32.7599 134.462 33.2954L134.496 33.5711H129.216L129.195 33.3494C129.174 33.1761 129.1 33.0136 128.981 32.8845C128.784 32.6216 128.16 32.1871 126.223 32.1871C123.845 32.1871 123.517 32.4892 123.517 32.8148C123.517 33.2493 124.268 33.4033 126.676 33.6593C127.68 33.7408 129.294 33.9055 129.847 33.9722C133.323 34.3469 134.875 35.5956 134.875 38.0222C134.876 40.0575 133.449 42.4861 126.653 42.4861ZM118.766 38.0036C118.815 38.3271 118.9 38.6441 119.02 38.9491C119.938 40.9981 122.436 41.9957 126.653 41.9957C130.18 41.9957 134.385 41.3091 134.385 38.0222C134.385 35.8712 133.012 34.806 129.795 34.4597C129.242 34.393 127.638 34.2292 126.636 34.1468C124.069 33.8702 123.025 33.7231 123.025 32.8148C123.025 31.8752 124.15 31.6966 126.225 31.6966C127.865 31.6966 128.924 31.9909 129.373 32.5843C129.496 32.7305 129.589 32.8991 129.646 33.0806H133.925C133.839 32.7013 133.703 32.3349 133.52 31.9909C132.533 30.1086 130.121 29.1552 126.341 29.1552C121.765 29.1552 118.808 30.6569 118.808 32.9806C118.808 35.1973 120.468 36.292 124.356 36.6412C124.85 36.6833 125.925 36.7844 126.778 36.8648L127.21 36.905C129.31 37.1247 130.236 37.262 130.236 38.2203C130.236 39.2522 129.039 39.4543 126.97 39.4543C125.057 39.4543 123.848 39.1688 123.381 38.6068C123.238 38.4276 123.129 38.2229 123.062 38.0036H118.766ZM144.254 42.4694C139.1 42.4694 136.257 40.3988 136.257 36.6382V28.8619H141.245V36.6382C141.245 37.928 142.407 38.6676 144.431 38.6676C146.367 38.6676 147.568 37.8957 147.568 36.6549V28.8619H152.505V37.0502C152.509 40.494 149.499 42.4694 144.251 42.4694H144.254ZM136.75 29.3524V36.6382C136.75 41.2855 141.448 41.979 144.254 41.979C147.154 41.979 152.019 41.3385 152.019 37.0502V29.3524H148.07V36.6549C148.07 38.1752 146.644 39.158 144.439 39.158C142.135 39.158 140.759 38.2164 140.759 36.6382V29.3524H136.75ZM173.423 42.288H168.716V36.2263L166.046 42.288H161.94L159.298 36.238V42.288H154.574V28.8619H160.788L164.016 36.2645L167.401 28.8619H173.429L173.423 42.288ZM169.209 41.7975H172.93V29.3524H167.715L164.001 37.4729L160.46 29.3524H155.064V41.7975H158.8V33.8781L162.256 41.8005H165.712L169.204 33.8898L169.209 41.7975ZM30.8408 29.1072H26.3447V42.0428H38.7688V38.599H30.8408V29.1072ZM47.8439 28.8129C42.1048 28.8129 39.0867 31.5152 39.0867 35.4828C39.0867 39.9653 42.2549 42.2389 47.8439 42.2389C53.9967 42.2389 56.5844 39.6024 56.5844 35.4828C56.5844 31.2994 53.665 28.8109 47.8439 28.8109V28.8129ZM47.8272 32.1743C48.2178 32.1725 48.6083 32.1951 48.9961 32.242L43.9698 37.2356C43.732 36.7011 43.616 36.1209 43.6302 35.5367C43.6302 33.5073 44.6589 32.1724 47.8272 32.1724V32.1743ZM47.8439 38.9305C47.4675 38.9322 47.0913 38.9112 46.7174 38.8677L51.7526 33.8653C51.9816 34.391 52.0912 34.9603 52.0735 35.5328C52.0735 37.5073 51.1257 38.9285 47.8439 38.9285V38.9305ZM65.4927 37.1649H70.1202C70.052 37.484 69.9101 37.7829 69.7055 38.0379C68.7461 38.8144 67.5218 39.1922 66.2885 39.0923C65.6677 39.1583 65.04 39.091 64.4477 38.8948C63.8554 38.6987 63.3124 38.3784 62.8557 37.9555C62.3878 37.2737 62.1656 36.4549 62.2248 35.6319C62.1491 34.7694 62.3908 33.909 62.905 33.2101C63.5517 32.4843 64.6466 32.1714 66.2559 32.1714C67.2798 32.0871 68.3025 32.3484 69.1585 32.9129C69.4284 33.1258 69.6301 33.4121 69.7391 33.7368H74.0308C73.9996 33.2017 73.8701 32.6768 73.6487 32.188C72.621 30.1116 70.2317 28.8757 66.169 28.8757C62.6355 28.8757 60.264 29.9468 58.9539 31.5623C58.0887 32.7289 57.6445 34.1512 57.6931 35.5995C57.6372 37.0806 58.0699 38.5392 58.9253 39.7534C60.2196 41.4209 62.5249 42.2409 65.2953 42.2409C67.1371 42.3685 68.9663 41.856 70.4697 40.7912L70.5862 42.0428H74.1513V34.3803H65.4927V37.1649ZM84.27 28.81C78.5319 28.81 75.5127 31.5122 75.5127 35.4798C75.5127 39.9624 78.68 42.236 84.27 42.236C90.4238 42.236 93.0115 39.5994 93.0115 35.4798C93.0115 31.2994 90.092 28.8109 84.27 28.8109V28.81ZM84.2542 32.1714C84.6346 32.1703 85.0147 32.1919 85.3925 32.2361L80.386 37.213C80.1556 36.6844 80.0434 36.1126 80.0572 35.5367C80.0533 33.5073 81.086 32.1724 84.2542 32.1724V32.1714ZM84.27 38.9275C83.8836 38.9292 83.4974 38.9068 83.1139 38.8608L88.1658 33.8408C88.4035 34.3734 88.5172 34.9524 88.4986 35.5347C88.5005 37.5073 87.5567 38.9285 84.27 38.9285V38.9275Z" fill="#0D0E14"/>
</svg>
