<svg width="199" height="72" viewBox="0 0 199 72" fill="none" xmlns="http://www.w3.org/2000/svg">
<rect x="0.5" y="0.5" width="197.068" height="71" rx="9.5" stroke="#A1AEBF"/>
<path d="M24.8619 44.9471L24.8619 26.6393L34.0758 31.7248V39.9124L41.447 44.0317L48.8181 39.9124V31.7248L58.0321 26.6393V44.9471L41.447 54.101L24.8619 44.9471Z" fill="#0D0E14"/>
<path fill-rule="evenodd" clip-rule="evenodd" d="M29.4689 29.1822L24.8619 26.6394L41.447 17.4855L58.0321 26.6394L53.4251 29.1822V42.6587L41.447 49.5242L29.4689 42.6587L29.4689 29.1822ZM52.926 29.4577L48.8181 31.7249V31.6741L41.447 27.5548L34.0758 31.6741V31.7249L29.968 29.4577V42.3771L41.447 48.9565L52.926 42.3771V29.4577Z" fill="#A1AEBF"/>
<path d="M66.8627 43.5003V28.1217H69.7816V40.8639H76.858V43.5003H66.8627Z" fill="#0D0E14"/>
<path d="M83.1601 43.8079C82.0692 43.8079 81.0889 43.5882 80.2191 43.1487C79.3493 42.7094 78.6638 42.0723 78.1626 41.2375C77.6612 40.4026 77.4106 39.3993 77.4106 38.2277V37.8761C77.4106 36.7044 77.6612 35.7011 78.1626 34.8663C78.6638 34.0315 79.3493 33.3944 80.2191 32.955C81.0889 32.5155 82.0692 32.2959 83.1601 32.2959C84.2511 32.2959 85.2314 32.5155 86.1013 32.955C86.9711 33.3944 87.6566 34.0315 88.1578 34.8663C88.659 35.7011 88.9097 36.7044 88.9097 37.8761V38.2277C88.9097 39.3993 88.659 40.4026 88.1578 41.2375C87.6566 42.0723 86.9711 42.7094 86.1013 43.1487C85.2314 43.5882 84.2511 43.8079 83.1601 43.8079ZM83.1601 41.3473C84.0152 41.3473 84.7229 41.0764 85.283 40.5344C85.8433 39.9779 86.1233 39.1869 86.1233 38.1617V37.9421C86.1233 36.9168 85.8433 36.1332 85.283 35.5913C84.7376 35.0348 84.0299 34.7565 83.1601 34.7565C82.3051 34.7565 81.5974 35.0348 81.0373 35.5913C80.477 36.1332 80.197 36.9168 80.197 37.9421V38.1617C80.197 39.1869 80.477 39.9779 81.0373 40.5344C81.5974 41.0764 82.3051 41.3473 83.1601 41.3473Z" fill="#0D0E14"/>
<path d="M89.9556 38.0958V37.7443C89.9556 36.6019 90.184 35.6279 90.6411 34.8224C91.098 34.0022 91.7025 33.3797 92.4543 32.955C93.221 32.5155 94.0539 32.2959 94.9531 32.2959C95.9556 32.2959 96.7149 32.4717 97.2308 32.8232C97.7468 33.1747 98.1228 33.5409 98.3586 33.9217H98.7567V32.6034H101.499V45.4336C101.499 46.1805 101.278 46.7737 100.835 47.2132C100.393 47.6672 99.8034 47.8942 99.0663 47.8942H91.7246V45.4776H98.0933C98.506 45.4776 98.7125 45.2578 98.7125 44.8185V41.9844H98.3144C98.1669 42.2187 97.9606 42.4604 97.6953 42.7094C97.4298 42.9437 97.0761 43.1414 96.6338 43.3026C96.1915 43.4637 95.6313 43.5443 94.9531 43.5443C94.0539 43.5443 93.221 43.3318 92.4543 42.9071C91.7025 42.4677 91.098 41.8452 90.6411 41.0397C90.184 40.2195 89.9556 39.2383 89.9556 38.0958ZM95.7493 41.1276C96.6043 41.1276 97.3193 40.8566 97.8943 40.3147C98.4692 39.7729 98.7567 39.0112 98.7567 38.03V37.8102C98.7567 36.8142 98.4692 36.0527 97.8943 35.5254C97.334 34.9835 96.6191 34.7125 95.7493 34.7125C94.8942 34.7125 94.1791 34.9835 93.6043 35.5254C93.0293 36.0527 92.7418 36.8142 92.7418 37.8102V38.03C92.7418 39.0112 93.0293 39.7729 93.6043 40.3147C94.1791 40.8566 94.8942 41.1276 95.7493 41.1276Z" fill="#0D0E14"/>
<path d="M108.812 43.8079C107.721 43.8079 106.74 43.5882 105.871 43.1487C105.001 42.7094 104.315 42.0723 103.814 41.2375C103.313 40.4026 103.062 39.3993 103.062 38.2277V37.8761C103.062 36.7044 103.313 35.7011 103.814 34.8663C104.315 34.0315 105.001 33.3944 105.871 32.955C106.74 32.5155 107.721 32.2959 108.812 32.2959C109.903 32.2959 110.883 32.5155 111.753 32.955C112.623 33.3944 113.308 34.0315 113.809 34.8663C114.311 35.7011 114.561 36.7044 114.561 37.8761V38.2277C114.561 39.3993 114.311 40.4026 113.809 41.2375C113.308 42.0723 112.623 42.7094 111.753 43.1487C110.883 43.5882 109.903 43.8079 108.812 43.8079ZM108.812 41.3473C109.667 41.3473 110.374 41.0764 110.935 40.5344C111.495 39.9779 111.775 39.1869 111.775 38.1617V37.9421C111.775 36.9168 111.495 36.1332 110.935 35.5913C110.389 35.0348 109.682 34.7565 108.812 34.7565C107.957 34.7565 107.249 35.0348 106.689 35.5913C106.129 36.1332 105.849 36.9168 105.849 37.9421V38.1617C105.849 39.1869 106.129 39.9779 106.689 40.5344C107.249 41.0764 107.957 41.3473 108.812 41.3473Z" fill="#0D0E14"/>
<path d="M116.138 43.5003V32.6034H118.924V43.5003H116.138ZM117.531 31.3292C117.03 31.3292 116.602 31.1681 116.249 30.8459C115.909 30.5236 115.74 30.0989 115.74 29.5717C115.74 29.0444 115.909 28.6197 116.249 28.2974C116.602 27.9753 117.03 27.8141 117.531 27.8141C118.047 27.8141 118.475 27.9753 118.814 28.2974C119.153 28.6197 119.322 29.0444 119.322 29.5717C119.322 30.0989 119.153 30.5236 118.814 30.8459C118.475 31.1681 118.047 31.3292 117.531 31.3292Z" fill="#0D0E14"/>
<path d="M121.017 47.8942V32.6034H123.759V33.9217H124.157C124.407 33.4969 124.798 33.1234 125.329 32.8012C125.86 32.4643 126.619 32.2959 127.607 32.2959C128.492 32.2959 129.31 32.5155 130.061 32.955C130.813 33.3797 131.417 34.0095 131.875 34.8444C132.332 35.6792 132.56 36.6898 132.56 37.8761V38.2277C132.56 39.414 132.332 40.4246 131.875 41.2594C131.417 42.0943 130.813 42.7314 130.061 43.1708C129.31 43.5955 128.492 43.8079 127.607 43.8079C126.943 43.8079 126.383 43.7273 125.926 43.5662C125.483 43.4197 125.122 43.2293 124.843 42.995C124.577 42.746 124.363 42.497 124.201 42.2481H123.803V47.8942H121.017ZM126.766 41.3912C127.636 41.3912 128.351 41.1202 128.911 40.5783C129.486 40.0218 129.774 39.2162 129.774 38.1617V37.9421C129.774 36.8875 129.486 36.0892 128.911 35.5473C128.337 34.9908 127.622 34.7125 126.766 34.7125C125.911 34.7125 125.196 34.9908 124.621 35.5473C124.046 36.0892 123.759 36.8875 123.759 37.9421V38.1617C123.759 39.2162 124.046 40.0218 124.621 40.5783C125.196 41.1202 125.911 41.3912 126.766 41.3912Z" fill="#0D0E14"/>
<path d="M138.678 43.8079C137.248 43.8079 136.076 43.5003 135.162 42.8852C134.249 42.27 133.696 41.3912 133.503 40.2488L136.069 39.5898C136.172 40.1023 136.342 40.5052 136.577 40.7981C136.828 41.091 137.131 41.3033 137.485 41.4352C137.852 41.5523 138.251 41.611 138.678 41.611C139.327 41.611 139.806 41.501 140.116 41.2814C140.425 41.047 140.58 40.7614 140.58 40.4246C140.58 40.0877 140.433 39.8314 140.138 39.6556C139.844 39.4652 139.372 39.3115 138.722 39.1943L138.104 39.0844C137.337 38.9379 136.636 38.7402 136.003 38.4913C135.369 38.2277 134.86 37.8688 134.476 37.4148C134.094 36.9607 133.902 36.3748 133.902 35.6572C133.902 34.5734 134.3 33.7459 135.096 33.1747C135.892 32.5888 136.939 32.2959 138.236 32.2959C139.46 32.2959 140.477 32.5669 141.287 33.1088C142.098 33.6507 142.629 34.3611 142.88 35.2398L140.293 36.0307C140.175 35.4742 139.932 35.0786 139.563 34.8444C139.209 34.61 138.767 34.4928 138.236 34.4928C137.705 34.4928 137.3 34.588 137.02 34.7784C136.74 34.9542 136.6 35.2032 136.6 35.5254C136.6 35.8769 136.747 36.1405 137.042 36.3163C137.337 36.4774 137.735 36.6019 138.236 36.6898L138.855 36.7996C139.681 36.9461 140.425 37.1438 141.089 37.3928C141.767 37.6271 142.298 37.9713 142.681 38.4254C143.079 38.8648 143.278 39.4652 143.278 40.2269C143.278 41.3693 142.858 42.2554 142.017 42.8852C141.192 43.5003 140.079 43.8079 138.678 43.8079Z" fill="#0D0E14"/>
<path d="M148.904 43.676C148.05 43.676 147.297 43.4856 146.649 43.1049C146.015 42.7093 145.521 42.1674 145.167 41.4791C144.814 40.7907 144.636 39.9998 144.636 39.1064V32.6034H147.423V38.8867C147.423 39.7068 147.622 40.322 148.02 40.7321C148.432 41.1422 149.015 41.3472 149.767 41.3472C150.621 41.3472 151.285 41.0689 151.757 40.5124C152.229 39.9412 152.464 39.1503 152.464 38.1397V32.6034H155.251V43.5003H152.508V42.0722H152.111C151.934 42.4384 151.602 42.7972 151.116 43.1487C150.629 43.5003 149.892 43.676 148.904 43.676Z" fill="#0D0E14"/>
<path d="M157.356 43.5003V32.6034H160.098V33.7898H160.496C160.687 33.4236 161.005 33.1088 161.447 32.8451C161.889 32.5669 162.471 32.4277 163.194 32.4277C163.975 32.4277 164.602 32.5815 165.074 32.889C165.545 33.182 165.906 33.5701 166.157 34.0534H166.555C166.806 33.5848 167.16 33.1967 167.617 32.889C168.074 32.5815 168.722 32.4277 169.563 32.4277C170.241 32.4277 170.853 32.5742 171.398 32.8671C171.958 33.1453 172.4 33.5774 172.725 34.1633C173.064 34.7345 173.233 35.4594 173.233 36.3383V43.5003H170.447V36.536C170.447 35.9355 170.293 35.4888 169.983 35.1959C169.673 34.8883 169.238 34.7345 168.678 34.7345C168.045 34.7345 167.55 34.9396 167.196 35.3496C166.858 35.7451 166.688 36.3163 166.688 37.0633V43.5003H163.902V36.536C163.902 35.9355 163.747 35.4888 163.438 35.1959C163.128 34.8883 162.693 34.7345 162.132 34.7345C161.499 34.7345 161.005 34.9396 160.651 35.3496C160.312 35.7451 160.142 36.3163 160.142 37.0633V43.5003H157.356Z" fill="#0D0E14"/>
</svg>
