<svg width="199" height="72" viewBox="0 0 199 72" fill="none" xmlns="http://www.w3.org/2000/svg">
<rect x="0.704102" y="0.5" width="197.068" height="71" rx="9.5" stroke="#A1AEBF"/>
<path d="M47.0297 45.4629L27.5209 32.0933C25.5439 30.7385 26.2159 27.9177 28.6812 27.2543L49.4156 21.6634C49.8548 21.5059 50.3254 21.4548 50.7886 21.5143C51.2516 21.5738 51.6938 21.7421 52.0783 22.0054C52.4627 22.2686 52.7785 22.6192 52.9993 23.0279C53.22 23.4367 53.3395 23.8919 53.3478 24.3557L52.119 43.3151C51.9733 45.5655 49.0067 46.8176 47.0297 45.4629Z" fill="#A1AEBF"/>
<path d="M40.8422 48.7634L29.3489 26.4333C29.0862 25.9225 28.9706 25.3495 29.0148 24.7775C29.0591 24.2055 29.2615 23.6568 29.5997 23.1918C29.9379 22.7269 30.3988 22.3637 30.9316 22.1425C31.4643 21.9212 32.0482 21.8504 32.6189 21.9379L53.9188 25.2039C54.4091 25.2791 54.8745 25.4688 55.2768 25.7576C55.6789 26.0463 56.0064 26.4258 56.2322 26.8647C56.458 27.3037 56.5757 27.7896 56.5756 28.2826C56.5755 28.7756 56.4576 29.2615 56.2318 29.7004L46.4197 48.7645C46.1562 49.2739 45.7565 49.7013 45.2644 49.9996C44.7723 50.298 44.2071 50.4557 43.6306 50.4556C43.0542 50.4555 42.4889 50.2976 41.997 49.9991C41.505 49.7004 41.1055 49.2729 40.8422 48.7634Z" fill="#728095"/>
<path d="M53.2956 25.1077L42.6777 23.4796L29.6414 26.9962L34.8448 37.1095L47.0297 45.4629C47.2985 45.6452 47.5942 45.7848 47.9062 45.8767L52.5343 36.8848L53.2956 25.1077Z" fill="#0D0E14"/>
<path d="M107.077 27.7179C107.077 27.3258 107.194 26.9426 107.414 26.6165C107.633 26.2905 107.945 26.0364 108.309 25.8864C108.674 25.7363 109.075 25.6971 109.462 25.7736C109.849 25.8501 110.205 26.0389 110.484 26.3161C110.763 26.5934 110.953 26.9466 111.03 27.3312C111.107 27.7158 111.067 28.1144 110.916 28.4766C110.765 28.8389 110.51 29.1485 110.182 29.3663C109.853 29.5842 109.467 29.7004 109.073 29.7004C108.545 29.6951 108.041 29.4845 107.668 29.1139C107.295 28.7432 107.083 28.2421 107.077 27.7179ZM107.41 30.6695H110.737V41.6828H107.41V30.6695Z" fill="#0D0E14"/>
<path d="M125.102 36.1761C125.141 36.904 125.034 37.6324 124.788 38.3193C124.543 39.0061 124.163 39.638 123.67 40.1785C123.178 40.7189 122.583 41.1573 121.919 41.4686C121.256 41.7797 120.537 41.9576 119.804 41.9917C119.187 42.025 118.571 41.9217 118 41.6893C117.428 41.4568 116.916 41.1011 116.5 40.6477V46.0885H113.175V30.6694H116.5V31.7044C116.916 31.2512 117.428 30.8957 118 30.6634C118.571 30.4312 119.188 30.328 119.804 30.3615C120.537 30.3955 121.256 30.5732 121.919 30.8842C122.583 31.1954 123.178 31.6337 123.67 32.1741C124.163 32.7145 124.543 33.3462 124.788 34.0331C125.034 34.7199 125.141 35.4481 125.102 36.1761ZM121.777 36.1761C121.763 35.6604 121.598 35.1601 121.3 34.7376C121.002 34.3151 120.585 33.9893 120.102 33.801C119.619 33.6126 119.09 33.5701 118.583 33.6787C118.075 33.7873 117.611 34.0421 117.248 34.4114C116.886 34.7807 116.641 35.248 116.545 35.7548C116.448 36.2616 116.505 36.7855 116.706 37.2608C116.908 37.736 117.246 38.1416 117.679 38.4268C118.112 38.712 118.619 38.864 119.138 38.864C119.495 38.88 119.851 38.8208 120.183 38.6905C120.515 38.5601 120.815 38.3615 121.064 38.1077C121.313 37.8538 121.505 37.5505 121.628 37.2176C121.751 36.8847 121.802 36.5297 121.777 36.1761Z" fill="#0D0E14"/>
<path d="M135.367 38.3768C135.367 40.9103 133.149 41.9895 130.755 41.9895C129.788 42.0765 128.816 41.8731 127.966 41.4056C127.117 40.9382 126.428 40.2282 125.989 39.3675L128.87 37.7383C128.987 38.1362 129.238 38.482 129.582 38.718C129.925 38.9539 130.339 39.0657 130.755 39.0347C131.553 39.0347 131.951 38.7917 131.951 38.3519C131.951 37.1398 126.497 37.7793 126.497 33.9678C126.497 31.5672 128.536 30.3561 130.847 30.3561C131.714 30.3291 132.572 30.5334 133.332 30.9479C134.093 31.3623 134.727 31.9716 135.17 32.7124L132.333 34.2325C132.209 33.9434 132.002 33.697 131.737 33.5241C131.473 33.3511 131.164 33.2594 130.847 33.2602C130.271 33.2602 129.916 33.4762 129.916 33.8771C129.913 35.1411 135.367 34.3038 135.367 38.3768Z" fill="#0D0E14"/>
<path d="M147.521 30.6696V41.6828H144.196V40.6457C143.812 41.1026 143.323 41.4625 142.772 41.6962C142.222 41.9298 141.623 42.0304 141.025 41.9897C138.785 41.9897 136.879 40.4037 136.879 37.4294V30.6696H140.205V36.9476C140.176 37.2101 140.207 37.4756 140.293 37.7253C140.379 37.9751 140.518 38.2034 140.702 38.3942C140.885 38.585 141.108 38.7336 141.355 38.8299C141.603 38.9263 141.868 38.9678 142.134 38.9517C143.353 38.9517 144.2 38.2473 144.2 36.6829V30.6696H147.521Z" fill="#0D0E14"/>
<path d="M166.582 34.9197V41.6828H163.256V35.2071C163.256 34.1062 162.723 33.4007 161.66 33.4007C160.551 33.4007 159.931 34.1721 159.931 35.4718V41.6828H156.604V35.2071C156.604 34.1062 156.072 33.4007 155.008 33.4007C153.9 33.4007 153.279 34.1721 153.279 35.4718V41.6828H149.953V30.6695H153.284V31.6786C153.629 31.2293 154.081 30.8729 154.6 30.6421C155.119 30.4113 155.689 30.3134 156.255 30.3573C156.824 30.3297 157.392 30.449 157.9 30.7037C158.409 30.9583 158.843 31.3396 159.16 31.8104C159.528 31.3178 160.017 30.9261 160.579 30.672C161.141 30.4178 161.76 30.3096 162.375 30.3573C164.92 30.3616 166.582 32.1669 166.582 34.9197Z" fill="#0D0E14"/>
<path d="M169.399 30.6014C170.763 30.6014 171.868 29.5034 171.868 28.149C171.868 26.7945 170.763 25.6965 169.399 25.6965C168.036 25.6965 166.931 26.7945 166.931 28.149C166.931 29.5034 168.036 30.6014 169.399 30.6014Z" fill="#0D0E14"/>
<path d="M61.6743 25.6036H65.0008V41.6828H61.6743V25.6036ZM66.8843 36.1762C66.8807 35.0215 67.2219 33.8917 67.8649 32.93C68.508 31.9681 69.4238 31.2175 70.4965 30.7731C71.5692 30.3288 72.7504 30.2106 73.8908 30.4336C75.0311 30.6567 76.0792 31.2108 76.9023 32.0261C77.7254 32.8412 78.2865 33.8806 78.5146 35.0128C78.7426 36.1451 78.6274 37.319 78.1835 38.3861C77.7396 39.4532 76.987 40.3654 76.0209 41.0073C75.0548 41.6491 73.9188 41.9918 72.7565 41.9918C71.9846 41.9999 71.2189 41.8553 70.5039 41.5661C69.789 41.277 69.1391 40.8492 68.5925 40.3078C68.0457 39.7664 67.6131 39.1221 67.3198 38.4128C67.0265 37.7034 66.8785 36.943 66.8843 36.1762ZM75.3098 36.1762C75.2968 35.678 75.1363 35.1949 74.8482 34.787C74.5603 34.3792 74.1576 34.0647 73.6906 33.883C73.2236 33.7014 72.7131 33.6604 72.2229 33.7656C71.7327 33.8706 71.2845 34.117 70.9345 34.4737C70.5844 34.8306 70.3481 35.282 70.2549 35.7715C70.1619 36.2611 70.216 36.767 70.4109 37.2262C70.6056 37.6852 70.9324 38.0771 71.3502 38.3527C71.768 38.6283 72.2584 38.7753 72.7598 38.7756C73.1032 38.7853 73.445 38.7241 73.7634 38.5961C74.0819 38.4682 74.3702 38.276 74.6102 38.0317C74.8502 37.7876 75.0367 37.4966 75.1578 37.1773C75.279 36.8578 75.3322 36.5169 75.3142 36.1762H75.3098ZM91.8924 30.6663V41.1297C91.8924 44.8299 88.9878 46.3932 86.0397 46.3932C85.0021 46.471 83.9628 46.2635 83.0358 45.7933C82.109 45.3232 81.3303 44.6086 80.7852 43.728L83.6223 42.0977C83.8513 42.5573 84.2162 42.9365 84.668 43.1846C85.1198 43.4327 85.637 43.5378 86.1506 43.486C86.4785 43.5304 86.8121 43.5012 87.1271 43.4004C87.442 43.2996 87.73 43.13 87.9701 42.9037C88.2101 42.6776 88.396 42.4008 88.514 42.0937C88.632 41.7866 88.6791 41.4571 88.6518 41.1297V40.1163C88.2622 40.5895 87.7665 40.9655 87.2044 41.2141C86.6422 41.4626 86.0292 41.5769 85.4144 41.5478C83.9513 41.5025 82.5631 40.8933 81.5442 39.849C80.5253 38.8047 79.9554 37.4075 79.9554 35.9531C79.9554 34.4986 80.5253 33.1013 81.5442 32.0571C82.5631 31.0128 83.9513 30.4035 85.4144 30.3583C86.0292 30.3291 86.6422 30.4434 87.2044 30.692C87.7665 30.9406 88.2622 31.3166 88.6518 31.7899V30.6663H91.8924ZM88.6561 35.9525C88.6781 35.4206 88.5393 34.8943 88.2578 34.4413C87.9762 33.9883 87.5648 33.6293 87.0762 33.4105C86.5877 33.1918 86.0444 33.1232 85.5163 33.2136C84.9883 33.304 84.4994 33.5493 84.1127 33.9179C83.7261 34.2865 83.4592 34.7615 83.3465 35.282C83.2338 35.8025 83.2803 36.3445 83.4802 36.8386C83.6799 37.3325 84.024 37.7558 84.4679 38.054C84.9118 38.3522 85.4354 38.5116 85.9712 38.5119C86.3206 38.5363 86.6713 38.4877 87.0007 38.3694C87.3301 38.2511 87.6309 38.0656 87.8838 37.8248C88.1366 37.5841 88.3361 37.2934 88.4691 36.9716C88.6021 36.6496 88.6658 36.3036 88.6561 35.9558V35.9525ZM93.7758 36.1686C93.7722 35.0139 94.1135 33.8842 94.7565 32.9224C95.3995 31.9606 96.3153 31.2099 97.388 30.7656C98.4608 30.3212 99.642 30.203 100.782 30.4261C101.923 30.6491 102.971 31.2032 103.794 32.0185C104.617 32.8336 105.178 33.8731 105.406 35.0053C105.634 36.1375 105.519 37.3114 105.075 38.3785C104.631 39.4456 103.879 40.3579 102.912 40.9997C101.946 41.6416 100.81 41.9842 99.6481 41.9842C98.8768 41.9923 98.1117 41.8479 97.3972 41.5592C96.6828 41.2707 96.0333 40.8435 95.4867 40.3029C94.9401 39.7623 94.5074 39.119 94.2136 38.4104C93.9198 37.7019 93.771 36.9424 93.7758 36.1762V36.1686ZM102.201 36.1686C102.189 35.6702 102.028 35.1867 101.74 34.7784C101.452 34.3702 101.049 34.0555 100.582 33.8736C100.115 33.6917 99.6039 33.6507 99.1134 33.7558C98.6228 33.8608 98.1743 34.1074 97.8242 34.4643C97.4739 34.8214 97.2374 35.2731 97.1443 35.7629C97.0511 36.2528 97.1055 36.7592 97.3005 37.2184C97.4956 37.6778 97.8226 38.0697 98.2407 38.3455C98.6589 38.6211 99.1496 38.768 99.6513 38.768C99.9938 38.777 100.334 38.7157 100.652 38.5879C100.969 38.4601 101.257 38.2684 101.496 38.0251C101.735 37.7818 101.922 37.492 102.043 37.1738C102.164 36.8556 102.218 36.516 102.201 36.1762V36.1686Z" fill="#0D0E14"/>
</svg>
