<svg width="199" height="72" viewBox="0 0 199 72" fill="none" xmlns="http://www.w3.org/2000/svg">
<rect x="1.15991" y="0.5" width="197.068" height="71" rx="9.5" stroke="#A1AEBF"/>
<g clip-path="url(#clip0_8_149)">
<path d="M48.14 42.3636H55.7715L36.8667 23.2727H29.2351L48.14 42.3636Z" fill="#728095"/>
<path d="M40.2158 23.2727L59.4318 41.4545V23.2727H54.2316V29.013L48.1647 23.2727L40.2158 23.2727Z" fill="#4B5567"/>
<path d="M25.575 24.1819V42.3637H30.5145V36.6384L36.2772 42.3637H43.8759L25.575 24.1819Z" fill="#A1AEBF"/>
<path d="M71.2325 39.6285H75.9027V42.3636H67.6672V27.8181H71.2325V39.6285Z" fill="#0D0E14"/>
<path d="M81.8094 42.3636C80.6882 42.3636 79.6763 42.1234 78.7739 41.6429C77.8851 41.1625 77.181 40.4762 76.6614 39.5841C76.1556 38.6918 75.9026 37.6486 75.9026 36.4544C75.9026 35.2741 76.1623 34.2377 76.6819 33.3456C77.2016 32.4396 77.9125 31.7464 78.8149 31.266C79.7174 30.7856 80.7292 30.5454 81.8504 30.5454C82.9716 30.5454 83.9834 30.7856 84.8859 31.266C85.7883 31.7464 86.4993 32.4396 87.0189 33.3456C87.5385 34.2377 87.7982 35.2741 87.7982 36.4544C87.7982 37.6349 87.5317 38.6781 86.9983 39.5841C86.4788 40.4762 85.7609 41.1625 84.8448 41.6429C83.9424 42.1234 82.9305 42.3636 81.8094 42.3636ZM81.8094 39.3164C82.4794 39.3164 83.0469 39.0693 83.5117 38.5752C83.9902 38.081 84.2295 37.3742 84.2295 36.4544C84.2295 35.5348 83.9971 34.828 83.5322 34.3338C83.081 33.8397 82.5204 33.5926 81.8504 33.5926C81.1667 33.5926 80.5993 33.8397 80.1481 34.3338C79.6969 34.8142 79.4713 35.5212 79.4713 36.4544C79.4713 37.3742 79.69 38.081 80.1276 38.5752C80.5788 39.0693 81.1394 39.3164 81.8094 39.3164Z" fill="#0D0E14"/>
<path d="M92.7666 30.5454C93.561 30.5454 94.2545 30.7097 94.8469 31.0383C95.4528 31.3669 95.9172 31.7983 96.2404 32.3322V30.7097H99.694V42.1496C99.694 43.2039 99.4852 44.1554 99.0679 45.0043C98.664 45.8669 98.0379 46.5516 97.1896 47.0582C96.3549 47.5648 95.3114 47.8181 94.0592 47.8181C92.3896 47.8181 91.0365 47.4142 89.9998 46.6063C88.963 45.8122 88.3706 44.7305 88.2225 43.3613H91.6357C91.7434 43.7995 91.9992 44.1417 92.4031 44.3882C92.8071 44.6483 93.3052 44.7784 93.8977 44.7784C94.6113 44.7784 95.1767 44.5663 95.5942 44.1417C96.0249 43.731 96.2404 43.0669 96.2404 42.1496V40.527C95.9038 41.061 95.4393 41.4991 94.8469 41.8415C94.2545 42.17 93.561 42.3344 92.7666 42.3344C91.8377 42.3344 90.9961 42.0948 90.2421 41.6155C89.4881 41.1226 88.8889 40.4312 88.4447 39.5412C88.0138 38.6375 87.7983 37.5969 87.7983 36.4194C87.7983 35.2418 88.0138 34.2081 88.4447 33.3181C88.8889 32.4281 89.4881 31.7435 90.2421 31.2642C90.9961 30.785 91.8377 30.5454 92.7666 30.5454ZM96.2404 36.4399C96.2404 35.5636 95.9981 34.8722 95.5133 34.3655C95.0421 33.8589 94.4631 33.6056 93.7765 33.6056C93.0898 33.6056 92.5041 33.8589 92.0194 34.3655C91.5481 34.8584 91.3125 35.5431 91.3125 36.4194C91.3125 37.2957 91.5481 37.9939 92.0194 38.5143C92.5041 39.0209 93.0898 39.2741 93.7765 39.2741C94.4631 39.2741 95.0421 39.0209 95.5133 38.5143C95.9981 38.0077 96.2404 37.3162 96.2404 36.4399Z" fill="#0D0E14"/>
<path d="M106.976 42.3636C105.941 42.3636 105.007 42.1234 104.174 41.6429C103.354 41.1625 102.704 40.4762 102.224 39.5841C101.757 38.6918 101.524 37.6486 101.524 36.4544C101.524 35.2741 101.764 34.2377 102.243 33.3456C102.723 32.4396 103.379 31.7464 104.212 31.266C105.045 30.7856 105.979 30.5454 107.014 30.5454C108.049 30.5454 108.983 30.7856 109.816 31.266C110.649 31.7464 111.305 32.4396 111.785 33.3456C112.265 34.2377 112.505 35.2741 112.505 36.4544C112.505 37.6349 112.258 38.6781 111.766 39.5841C111.287 40.4762 110.624 41.1625 109.778 41.6429C108.945 42.1234 108.011 42.3636 106.976 42.3636ZM106.976 39.3164C107.595 39.3164 108.119 39.0693 108.548 38.5752C108.989 38.081 109.21 37.3742 109.21 36.4544C109.21 35.5348 108.996 34.828 108.567 34.3338C108.15 33.8397 107.633 33.5926 107.014 33.5926C106.383 33.5926 105.859 33.8397 105.443 34.3338C105.026 34.8142 104.818 35.5212 104.818 36.4544C104.818 37.3742 105.02 38.081 105.424 38.5752C105.84 39.0693 106.358 39.3164 106.976 39.3164Z" fill="#0D0E14"/>
<path d="M115.719 29.7794C115.042 29.7794 114.486 29.6023 114.051 29.2482C113.63 28.8805 113.42 28.4311 113.42 27.8999C113.42 27.3551 113.63 26.9057 114.051 26.5516C114.486 26.1839 115.042 26 115.719 26C116.38 26 116.921 26.1839 117.341 26.5516C117.777 26.9057 117.995 27.3551 117.995 27.8999C117.995 28.4311 117.777 28.8805 117.341 29.2482C116.921 29.6023 116.38 29.7794 115.719 29.7794ZM117.634 30.9643V42.3636H113.78V30.9643H117.634Z" fill="#0D0E14"/>
<path d="M123.013 32.3516C123.324 31.8118 123.752 31.3758 124.299 31.0437C124.846 30.7115 125.486 30.5454 126.219 30.5454C127.077 30.5454 127.854 30.7876 128.549 31.272C129.246 31.7564 129.793 32.4485 130.19 33.3481C130.601 34.2477 130.806 35.2926 130.806 36.4829C130.806 37.6732 130.601 38.7251 130.19 39.6385C129.793 40.5381 129.246 41.237 128.549 41.7353C127.854 42.2197 127.077 42.4619 126.219 42.4619C125.499 42.4619 124.858 42.2958 124.299 41.9637C123.752 41.6315 123.324 41.2024 123.013 40.6765V47.8181H119.825V30.7115H123.013V32.3516ZM127.562 36.4829C127.562 35.5971 127.338 34.9051 126.891 34.4068C126.456 33.8947 125.915 33.6387 125.269 33.6387C124.635 33.6387 124.094 33.8947 123.647 34.4068C123.212 34.919 122.995 35.6179 122.995 36.5036C122.995 37.3894 123.212 38.0884 123.647 38.6005C124.094 39.1126 124.635 39.3686 125.269 39.3686C125.903 39.3686 126.443 39.1126 126.891 38.6005C127.338 38.0745 127.562 37.3687 127.562 36.4829Z" fill="#0D0E14"/>
<path d="M137.076 42.3636C136.062 42.3636 135.159 42.192 134.368 41.8488C133.575 41.5057 132.95 41.039 132.492 40.4488C132.033 39.8449 131.776 39.1722 131.721 38.431H135.243C135.284 38.8291 135.472 39.1517 135.806 39.3988C136.138 39.6458 136.549 39.7694 137.035 39.7694C137.479 39.7694 137.819 39.687 138.056 39.5223C138.306 39.3439 138.431 39.1173 138.431 38.8429C138.431 38.5134 138.257 38.2732 137.91 38.1222C137.562 37.9575 137 37.7791 136.222 37.5869C135.388 37.3947 134.693 37.1957 134.138 36.9898C133.582 36.7702 133.103 36.4339 132.7 35.9809C132.297 35.5143 132.096 34.8897 132.096 34.1073C132.096 33.4485 132.276 32.8514 132.637 32.316C133.012 31.767 133.555 31.3347 134.263 31.019C134.986 30.7033 135.84 30.5454 136.826 30.5454C138.285 30.5454 139.432 30.9023 140.265 31.616C141.113 32.3298 141.599 33.2769 141.724 34.4574H138.431C138.375 34.0593 138.194 33.7436 137.889 33.5102C137.597 33.2769 137.208 33.1603 136.722 33.1603C136.306 33.1603 135.986 33.2425 135.763 33.4073C135.541 33.5583 135.43 33.7711 135.43 34.0455C135.43 34.375 135.604 34.622 135.951 34.7867C136.312 34.9515 136.868 35.1162 137.619 35.2809C138.48 35.5005 139.182 35.7201 139.723 35.9398C140.265 36.1456 140.738 36.4888 141.14 36.9692C141.557 37.4359 141.772 38.0673 141.786 38.8634C141.786 39.536 141.592 40.14 141.202 40.6752C140.827 41.1969 140.279 41.6086 139.557 41.9106C138.848 42.2126 138.021 42.3636 137.076 42.3636Z" fill="#0D0E14"/>
<path d="M153.682 31.4546V42.2476H150.304V40.7777C149.962 41.2548 149.495 41.6416 148.902 41.9382C148.323 42.2219 147.678 42.3637 146.967 42.3637C146.124 42.3637 145.38 42.1832 144.735 41.8222C144.09 41.4482 143.59 40.913 143.234 40.2167C142.879 39.5203 142.701 38.7016 142.701 37.7602V31.4546H146.058V37.3153C146.058 38.0375 146.25 38.5984 146.631 38.9981C147.013 39.3979 147.526 39.5977 148.171 39.5977C148.83 39.5977 149.35 39.3979 149.732 38.9981C150.114 38.5984 150.304 38.0375 150.304 37.3153V31.4546H153.682Z" fill="#0D0E14"/>
<path d="M170.082 31.4546C171.501 31.4546 172.627 31.8608 173.459 32.6731C174.305 33.4855 174.728 34.6139 174.728 36.0581V42.3637H171.248V36.5029C171.248 35.8066 171.051 35.2715 170.655 34.8975C170.273 34.5107 169.741 34.3173 169.059 34.3173C168.377 34.3173 167.838 34.5107 167.442 34.8975C167.061 35.2715 166.87 35.8066 166.87 36.5029V42.3637H163.39V36.5029C163.39 35.8066 163.193 35.2715 162.797 34.8975C162.415 34.5107 161.883 34.3173 161.201 34.3173C160.518 34.3173 159.98 34.5107 159.584 34.8975C159.202 35.2715 159.011 35.8066 159.011 36.5029V42.3637H155.512V31.5706H159.011V32.9246C159.366 32.4733 159.829 32.1187 160.403 31.8608C160.976 31.59 161.624 31.4546 162.346 31.4546C163.206 31.4546 163.97 31.6287 164.639 31.9768C165.321 32.325 165.853 32.8215 166.235 33.4662C166.631 32.873 167.17 32.3895 167.852 32.0155C168.534 31.6416 169.278 31.4546 170.082 31.4546Z" fill="#0D0E14"/>
</g>
<defs>
<clipPath id="clip0_8_149">
<rect width="150.068" height="40" fill="white" transform="translate(24.6599 16)"/>
</clipPath>
</defs>
</svg>
