<svg width="65" height="72" viewBox="0 0 65 72" fill="none" xmlns="http://www.w3.org/2000/svg">
<rect x="0.908203" y="0.5" width="197.068" height="71" rx="9.5" stroke="#A1AEBF"/>
<path d="M62.4849 46.957C66.0381 43.8624 68.2169 39.6862 68.2169 35.091C68.2169 25.5515 58.8273 17.8182 47.2447 17.8182C35.6621 17.8182 26.2725 25.5515 26.2725 35.091C26.2725 44.6304 35.6621 52.3637 47.2447 52.3637C50.5306 52.3637 53.6401 51.7413 56.4087 50.6318C59.661 52.5897 63.6456 53.9971 68.0463 53.7002C65.7214 53.1239 63.7217 50.7891 62.4849 46.957Z" fill="#728095"/>
<path d="M62.6243 35.0909C62.6243 42.12 55.7386 47.8182 47.2446 47.8182C38.7507 47.8182 31.865 42.12 31.865 35.0909C31.865 28.0618 38.7507 22.3636 47.2446 22.3636C55.7386 22.3636 62.6243 28.0618 62.6243 35.0909Z" fill="#F6E05E"/>
<path d="M57.0316 35.0909C57.0316 39.6096 52.6498 43.2727 47.2446 43.2727C41.8393 43.2727 37.4575 39.6096 37.4575 35.0909C37.4575 30.5721 41.8393 26.9091 47.2446 26.9091C52.6498 26.9091 57.0316 30.5721 57.0316 35.0909Z" fill="#A1AEBF"/>
</svg>
