<svg width="1440" height="744" viewBox="0 0 1440 744" fill="none" xmlns="http://www.w3.org/2000/svg">
<path d="M4.45598 49.2201C-1.91233 49.2201 -3.8361 47.5387 -4.00194 46.6981V827H1435.83V48.7159C1433.68 49.7247 1428.47 51.137 1424.89 48.7159C1420.41 45.6896 1407.97 39.6368 1405.98 39.6368C1403.99 39.6368 1398.99 28.0339 1393.02 31.5646C1387.05 35.0954 1379.57 24.5075 1377.09 24.5075C1377.09 24.5075 1369.61 20.9812 1365.14 17.4504C1361.55 14.6258 1342.68 6.85789 1347.21 14.9301C1335.71 14.9301 1339.81 22.4935 1329.79 18.9627C1319.77 15.4319 1317.34 27.0279 1317.34 27.0279C1312.79 31.552 1313.85 34.591 1311.37 31.5646C1308.88 28.5383 1313.36 35.0932 1311.37 35.0932C1309.38 35.0932 1300.41 36.106 1293.94 39.6368C1287.47 43.1676 1290.06 48.7159 1287.07 48.7159C1284.09 48.7159 1281.1 44.1764 1277.62 42.1588C1274.14 40.1412 1269.66 39.1324 1266.18 39.6368C1262.7 40.1412 1256.23 46.6983 1251.25 48.7159C1247.27 50.33 1238.65 51.4061 1234.83 51.7423L1121.9 56.2819L786.067 43.1676L493.025 52.7511H189.038C181.906 49.0521 167.146 41.1497 165.156 39.1322C162.669 36.6103 158.689 41.6541 156.698 43.6717C154.708 45.6893 148.343 43.6717 144.861 43.6717C141.378 43.6717 139.88 41.1498 137.393 39.1322C134.905 37.1146 134.403 32.0672 131.418 34.5891C128.433 37.111 128.361 35.0948 123.452 32.5728C118.544 30.0508 112.441 27.8531 109.512 26.0198C100.082 20.1168 88.2083 21.0859 88.5376 17.9545C91.0827 -6.24763 66.6944 20.9789 65.2018 20.9789C63.7092 20.9789 57.6911 28.5401 50.2282 28.5401C42.7654 28.5401 40.2777 46.6981 36.7951 43.6717C33.3124 40.6453 27.3421 40.6453 22.8644 41.6541C18.3867 42.6629 12.4164 49.2201 4.45598 49.2201Z" fill="#0F0F0F"/>
<path d="M326.387 52.2361C312.815 52.3933 299.446 48.9631 287.637 42.3011C282.236 39.0032 277.038 35.3867 272.065 31.4762C269.753 29.6969 267.37 27.9176 264.613 26.2127C259.254 21.7563 252.488 19.3108 245.503 19.3108C238.513 19.3108 231.752 21.7522 226.388 26.2086C224.005 27.9134 221.768 29.6927 219.456 31.472C215.73 34.3644 212.005 37.2567 207.904 39.9257C195.006 47.9325 180.116 52.1816 164.913 52.1816C149.71 52.1816 134.816 47.9362 121.917 39.9298C117.892 37.2609 114.466 34.443 110.515 31.5506C108.058 29.6224 105.521 27.6942 103.064 25.8404C97.8329 21.7936 91.4002 19.5964 84.7716 19.5964C78.1476 19.5964 71.7104 21.7936 66.4795 25.8404C63.6477 27.7686 61.0406 29.8458 58.3586 31.9189C55.6766 33.9961 50.9072 37.6292 46.9569 40.2982C26.5358 52.6495 1.72042 55.5213 -21 48.1601L-15.1121 29.9954C2.32739 35.627 21.3595 33.4339 37.0436 23.9872C40.6197 21.6865 43.8256 19.0921 47.1022 16.5721C50.3788 14.0521 52.9901 11.975 56.1171 9.82324C64.5955 3.55848 74.8829 0.173709 85.4447 0.173709C96.0023 0.173709 106.285 3.55848 114.764 9.82324C117.596 11.8259 120.352 13.9777 123.034 16.0507C125.716 18.1279 129.592 21.1651 133.168 23.4658C142.935 29.4202 154.167 32.5691 165.618 32.5691C177.074 32.5691 188.304 29.4202 198.072 23.4658C201.723 21.0947 205.003 18.4962 208.28 16.0507C211.557 13.6052 213.199 12.1943 215.731 10.3405C224.389 3.63305 235.05 0 246.019 0C256.993 0 267.65 3.63718 276.311 10.3446C278.918 12.1984 281.38 14.1266 283.763 15.9804C288.137 19.4604 292.715 22.6754 297.472 25.6175C313.556 34.3691 332.792 35.2753 349.632 28.063C357.088 24.2686 364.153 19.7458 370.719 14.5697L376.382 10.4153C385.093 3.73262 395.784 0.103689 406.786 0.103689C417.784 0.103689 428.475 3.73262 437.187 10.4153L444.638 15.8276C448.738 19.0179 452.684 21.9806 456.934 24.724C465.832 30.2605 476.265 32.8591 486.739 32.1432L487.409 51.1977C473.043 51.9757 458.797 48.2682 446.651 40.5963C441.732 37.4061 437.262 33.9964 433.016 30.7358L426.234 25.6214C420.77 21.3512 414.025 19.0256 407.082 19.0256C400.138 19.0256 393.393 21.347 387.934 25.6173L382.42 29.6227C374.86 35.5564 366.723 40.7241 358.128 45.0449C348.207 49.7414 337.368 52.1988 326.387 52.2361Z" fill="#0F0F0F"/>
<path d="M800.599 52.2361C787.027 52.3933 773.658 48.9631 761.85 42.3011C756.448 39.0032 751.251 35.3867 746.277 31.4762C743.965 29.6969 741.583 27.9176 738.826 26.2127C733.466 21.7563 726.7 19.3108 719.715 19.3108C712.725 19.3108 705.964 21.7522 700.6 26.2086C698.218 27.9134 695.981 29.6927 693.669 31.472C689.943 34.3644 686.217 37.2567 682.117 39.9257C669.218 47.9325 654.328 52.1816 639.125 52.1816C623.922 52.1816 609.029 47.9362 596.13 39.9298C592.104 37.2609 588.678 34.443 584.728 31.5506C582.27 29.6224 579.734 27.6942 577.276 25.8404C572.045 21.7936 565.613 19.5964 558.984 19.5964C552.36 19.5964 545.923 21.7936 540.692 25.8404C537.86 27.7686 535.253 29.8458 532.571 31.9189C529.889 33.9961 525.12 37.6292 521.169 40.2982C500.748 52.6495 476.158 57.0845 453.212 41.862L457.037 25.8404C476.158 34.2507 495.572 33.4339 511.256 23.9872C514.832 21.6865 518.038 19.0921 521.315 16.5721C524.591 14.0521 527.203 11.975 530.33 9.82324C538.808 3.55848 549.095 0.173709 559.657 0.173709C570.215 0.173709 580.498 3.55848 588.976 9.82324C591.808 11.8259 594.565 13.9777 597.247 16.0507C599.929 18.1279 603.804 21.1651 607.38 23.4658C617.148 29.4202 628.379 32.5691 639.83 32.5691C651.286 32.5691 662.516 29.4202 672.284 23.4658C675.935 21.0947 679.216 18.4962 682.492 16.0507C685.769 13.6052 687.411 12.1943 689.944 10.3405C698.601 3.63305 709.262 0 720.232 0C731.206 0 741.862 3.63718 750.524 10.3446C753.131 12.1984 755.593 14.1266 757.975 15.9804C762.35 19.4604 766.928 22.6754 771.685 25.6175C787.768 34.3691 807.004 35.2753 823.845 28.063C831.3 24.2686 838.365 19.7458 844.931 14.5697L850.594 10.4153C859.306 3.73262 869.997 0.103689 880.998 0.103689C891.997 0.103689 902.687 3.73262 911.399 10.4153L918.851 15.8276C922.951 19.0179 926.897 21.9806 931.146 24.724C940.045 30.2605 950.477 32.8591 960.952 32.1432L961.621 51.1977C947.255 51.9757 933.009 48.2682 920.863 40.5963C915.944 37.4061 911.474 33.9964 907.228 30.7358L900.446 25.6214C894.983 21.3512 888.238 19.0256 881.294 19.0256C874.35 19.0256 867.606 21.347 862.146 25.6173L856.632 29.6227C849.073 35.5564 840.935 40.7241 832.341 45.0449C822.419 49.7414 811.581 52.1988 800.599 52.2361Z" fill="#0F0F0F"/>
<path d="M1274.81 52.2361C1261.24 52.3933 1247.87 48.9631 1236.06 42.3011C1230.66 39.0032 1225.46 35.3867 1220.49 31.4762C1218.18 29.6969 1215.8 27.9176 1213.04 26.2127C1207.68 21.7563 1200.91 19.3108 1193.93 19.3108C1186.94 19.3108 1180.18 21.7522 1174.81 26.2086C1172.43 27.9134 1170.19 29.6927 1167.88 31.472C1164.16 34.3644 1160.43 37.2567 1156.33 39.9257C1143.43 47.9325 1128.54 52.1816 1113.34 52.1816C1098.13 52.1816 1083.24 47.9362 1070.34 39.9298C1066.32 37.2609 1062.89 34.443 1058.94 31.5506C1056.48 29.6224 1053.95 27.6942 1051.49 25.8404C1046.26 21.7936 1039.83 19.5964 1033.2 19.5964C1026.57 19.5964 1020.14 21.7936 1014.9 25.8404C1012.07 27.7686 1009.47 29.8458 1006.78 31.9189C1004.1 33.9961 999.332 37.6292 995.382 40.2982C974.961 52.6495 950.371 57.0845 927.425 41.862L931.249 25.8404C950.371 34.2507 969.785 33.4339 985.469 23.9872C989.045 21.6865 992.251 19.0921 995.527 16.5721C998.804 14.0521 1001.41 11.975 1004.54 9.82324C1013.02 3.55848 1023.31 0.173709 1033.87 0.173709C1044.43 0.173709 1054.71 3.55848 1063.19 9.82324C1066.02 11.8259 1068.78 13.9777 1071.46 16.0507C1074.14 18.1279 1078.02 21.1651 1081.59 23.4658C1091.36 29.4202 1102.59 32.5691 1114.04 32.5691C1125.5 32.5691 1136.73 29.4202 1146.5 23.4658C1150.15 21.0947 1153.43 18.4962 1156.7 16.0507C1159.98 13.6052 1161.62 12.1943 1164.16 10.3405C1172.81 3.63305 1183.47 0 1194.44 0C1205.42 0 1216.07 3.63718 1224.74 10.3446C1227.34 12.1984 1229.81 14.1266 1232.19 15.9804C1236.56 19.4604 1241.14 22.6754 1245.9 25.6175C1261.98 34.3691 1281.22 35.2753 1298.06 28.063C1305.51 24.2686 1312.58 19.7458 1319.14 14.5697L1324.81 10.4153C1333.52 3.73262 1344.21 0.103689 1355.21 0.103689C1366.21 0.103689 1376.9 3.73262 1385.61 10.4153L1393.06 15.8276C1397.16 19.0179 1401.11 21.9806 1405.36 24.724C1414.26 30.2605 1424.69 32.8591 1435.16 32.1432C1445.64 31.4273 1435.83 51.1977 1435.83 51.1977C1421.47 51.9757 1407.22 48.2682 1395.08 40.5963C1390.16 37.4061 1385.69 33.9964 1381.44 30.7358L1374.66 25.6214C1369.2 21.3512 1362.45 19.0256 1355.51 19.0256C1348.56 19.0256 1341.82 21.347 1336.36 25.6173L1330.84 29.6227C1323.29 35.5564 1315.15 40.7241 1306.55 45.0449C1296.63 49.7414 1285.79 52.1988 1274.81 52.2361Z" fill="#0F0F0F"/>
</svg>
