<svg width="27" height="23" viewBox="0 0 27 23" fill="none" xmlns="http://www.w3.org/2000/svg">
<path d="M23.7969 6.07539C23.8073 6.31291 23.8073 6.53963 23.8073 6.77714C23.8177 13.9782 18.5271 22.2912 8.85193 22.2912C5.99832 22.2912 3.19679 21.4383 0.791016 19.8405C1.2076 19.8945 1.62419 19.9161 2.04077 19.9161C4.40489 19.9161 6.70652 19.0956 8.57073 17.5733C6.32118 17.5301 4.3424 16.0079 3.65504 13.7838C4.44655 13.9458 5.25889 13.9134 6.02957 13.6867C3.58213 13.1901 1.82206 10.9553 1.81165 8.35338C1.81165 8.33179 1.81165 8.3102 1.81165 8.2886C2.54067 8.70965 3.36343 8.94717 4.1966 8.96876C1.89497 7.37093 1.17636 4.18606 2.57192 1.69215C5.24847 5.10374 9.1852 7.1658 13.4135 7.39252C12.9865 5.50319 13.5698 3.5167 14.9341 2.17798C17.0482 0.115913 20.3809 0.223875 22.3805 2.41549C23.5574 2.17798 24.6926 1.72454 25.7236 1.08757C25.3279 2.35072 24.5051 3.41954 23.4116 4.09969C24.453 3.97014 25.4737 3.67864 26.4318 3.2468C25.7236 4.34801 24.828 5.29807 23.7969 6.07539Z" fill="white"/>
</svg>
