<svg width="106" height="17" viewBox="0 0 106 17" fill="none" xmlns="http://www.w3.org/2000/svg">
<path d="M61.7656 16.3402C60.5295 16.3402 59.3952 16.2311 58.3626 16.0129C57.3301 15.7803 56.3921 15.4749 55.5487 15.0968C54.7198 14.7041 53.9636 14.2606 53.2801 13.7661L54.9815 10.7995C56.174 11.6429 57.3738 12.261 58.5808 12.6536C59.7878 13.0317 60.9439 13.2208 62.0492 13.2208C62.5291 13.2208 63.0308 13.1772 63.5543 13.0899C64.0778 12.9881 64.5141 12.8209 64.8631 12.5882C65.2267 12.341 65.4085 12.0065 65.4085 11.5848C65.4085 11.3375 65.3212 11.134 65.1467 10.974C64.9867 10.7995 64.7613 10.6613 64.4705 10.5595C64.1796 10.4577 63.8379 10.3777 63.4452 10.3196C63.0671 10.2469 62.6527 10.196 62.2018 10.1669C61.7656 10.1233 61.322 10.0796 60.8712 10.036C59.8532 9.9342 58.9298 9.76696 58.1009 9.53428C57.272 9.3016 56.5594 9.00348 55.9631 8.63992C55.3814 8.26182 54.9306 7.80373 54.6107 7.26566C54.2908 6.72759 54.1308 6.10953 54.1308 5.4115C54.1308 4.6262 54.3198 3.92817 54.6979 3.31738C55.0906 2.7066 55.6359 2.19761 56.334 1.79043C57.032 1.36869 57.8318 1.04876 58.7335 0.830623C59.6496 0.612487 60.6313 0.503418 61.6783 0.503418C62.769 0.503418 63.7506 0.605215 64.6232 0.80881C65.5103 0.997862 66.2883 1.25963 66.9572 1.5941C67.6407 1.92858 68.2079 2.29214 68.6587 2.68479L66.87 5.2588C66.4192 4.92432 65.8956 4.64075 65.2994 4.40807C64.7177 4.16085 64.0996 3.97179 63.4452 3.84091C62.8054 3.71003 62.1655 3.64459 61.5256 3.64459C60.8712 3.64459 60.2822 3.70276 59.7587 3.8191C59.2497 3.92089 58.8425 4.08086 58.5371 4.299C58.2463 4.50259 58.1009 4.77163 58.1009 5.10611C58.1009 5.4115 58.2245 5.66599 58.4717 5.86958C58.7335 6.05864 59.068 6.21133 59.4751 6.32767C59.8823 6.42947 60.3331 6.50945 60.8276 6.56762C61.322 6.62579 61.8019 6.68396 62.2673 6.74213C63.1398 6.82939 63.9978 6.94572 64.8413 7.09115C65.6848 7.22203 66.441 7.44017 67.1099 7.74556C67.7934 8.03641 68.3388 8.45814 68.7459 9.01075C69.1531 9.54882 69.3567 10.2832 69.3567 11.2139C69.3567 12.2901 69.0295 13.2135 68.3751 13.9843C67.7207 14.7405 66.8191 15.3222 65.6702 15.7294C64.5359 16.1366 63.2344 16.3402 61.7656 16.3402Z" fill="#0D0E14"/>
<path d="M93.9143 16.2992V12.9808H98.0153V4.12449H93.9143L93.8417 0.925084H105.846V4.12449H101.724V12.9808H105.846V16.2992H93.9143Z" fill="#0D0E14"/>
<path d="M0.56543 13.7931L0.6066 16.2992H15.9852L15.9441 12.9642H6.34279L15.7041 3.43162V0.925084H2.05469V4.43505H9.77376L0.56543 13.7931Z" fill="#0D0E14"/>
<path d="M19.0756 16.2992V0.925084H32.7746V4.01542H22.6749V6.8512H31.793V9.86149H22.6749V13.0951H32.9927V16.2992H19.0756Z" fill="#0D0E14"/>
<path d="M84.4874 16.2529C82.8587 16.2529 81.4408 15.933 80.2337 15.2931C79.0267 14.6532 78.0887 13.7734 77.4198 12.6536C76.7508 11.5339 76.4163 10.1669 76.4163 8.72718V0.925084H80.1683V8.72718C80.1683 14.0001 88.9156 14.0001 88.9156 8.72718V0.925084H92.5367V8.72718C92.5367 10.1669 92.2022 11.5339 91.5332 12.6536C90.8643 13.7734 89.9263 14.6532 88.7193 15.2931C87.5122 15.933 86.1016 16.2529 84.4874 16.2529Z" fill="#0D0E14"/>
<path d="M35.6819 8.72718V0.925084H39.4339V8.72718C39.4339 14.1743 48.1812 14.1743 48.1812 8.72718V0.925084H51.8022V8.72718C51.8022 18.8843 35.6819 18.8162 35.6819 8.72718Z" fill="#0D0E14"/>
</svg>
